<svg width="17" height="35" viewBox="0 0 17 35" fill="none" xmlns="http://www.w3.org/2000/svg">
<g clip-path="url(#clip0_549_2)">
<path d="M7.93998 16.0938C6.87218 14.3079 5.88615 12.6547 5.25335 11.0671C5.04355 10.4233 4.87872 9.78935 4.77682 9.18182C4.41803 7.44283 4.56788 6.42145 5.23451 5.01396C5.24864 4.98452 5.26362 4.95423 5.27904 4.92394C5.59629 4.74347 6.03343 4.57537 6.53437 4.52631C7.65055 4.41666 9.54596 4.69867 10.2708 6.73034C11.0355 8.87677 9.40296 13.0617 7.93998 16.0938ZM14.8336 3.98959C14.7608 3.85008 14.4906 3.34537 14.3977 3.17258C14.3802 3.14058 14.3686 3.11967 14.3661 3.11498C13.1869 0.957457 13.1471 1.36618 12.4111 1.23648C12.3837 1.23179 12.3555 1.22454 12.3281 1.21771C11.4898 1.02529 10.049 0.481325 9.34516 0.223634C8.61774 -0.0417365 6.70348 0.529109 5.46785 0.650275C5.15359 0.680567 4.90997 0.738165 4.71559 0.81368C4.14744 1.0334 4.00615 1.40671 3.77152 1.71261C3.63452 1.8918 3.53861 1.94599 3.41145 1.97585C3.40888 1.97628 3.40546 1.97628 3.40375 1.97713C2.44255 2.32058 0.171653 5.11209 0.662311 8.96423C0.697419 9.34224 0.777055 9.71043 0.879383 10.0709C1.81831 13.7678 4.96049 18.7258 5.73202 20.1328C5.16344 21.4367 3.95006 24.1138 3.56302 26.6353C3.54718 26.7206 3.45341 27.3 3.44742 27.7864C3.39604 29.068 3.63709 30.2408 4.38292 31.083C4.38763 31.0881 4.52935 31.2396 4.53577 31.2464C4.91725 31.621 5.36681 31.8591 5.81936 32.002C6.45987 32.2768 6.9471 32.1232 7.41849 32.0434C7.62871 32.1705 7.84878 32.2686 8.0727 32.345C9.42052 32.8092 10.9285 32.4367 11.6349 32.0434C12.5824 31.7366 13.0144 31.1824 13.285 30.3232C13.5577 29.5138 13.9752 27.8623 13.0302 25.4181C12.6059 24.3626 11.7522 22.7106 10.4369 20.3095L10.4284 20.2954C11.4829 18.3068 14.3065 13.3864 14.8092 11.9486C14.8366 11.8726 14.8601 11.7993 14.8837 11.7259C15.7374 9.54916 16.2949 6.66975 14.8336 3.98959Z" fill="white"/>
<path d="M7.13854 22.7624C6.83413 22.1775 6.16793 20.9031 6.02579 20.6002C4.4776 23.6063 4.09569 26.9448 4.07129 27.915C4.08756 28.6607 4.07129 29.7918 5.12967 30.2734C6.534 28.3676 4.07129 25.5202 7.13854 22.7624Z" fill="#ACA9A6"/>
<path d="M10.6922 12.7362C11.0545 10.9438 11.9574 9.41561 10.8108 6.92445C9.86634 4.87358 8.24066 4.13976 6.5332 4.5263C7.65024 4.41665 9.54651 4.69781 10.2705 6.73033C11.0352 8.87676 9.40265 13.0617 7.93967 16.0938C7.90628 16.1651 7.86988 16.2363 7.83563 16.3071C8.54679 17.5371 9.12864 18.5956 9.8231 19.8457C9.8231 19.8457 10.759 18.3405 11.1478 17.6587C10.3506 15.8182 10.4662 13.8527 10.6922 12.7362Z" fill="#ACA9A6"/>
<path d="M15.1295 6.89062C15.1286 6.82876 15.1286 6.76562 15.1274 6.70632V6.69608C15.1269 6.6692 15.1256 6.64531 15.1256 6.61885C15.1158 6.3505 15.097 6.1184 15.0713 5.92642C15.0439 5.73741 15.0109 5.59662 14.9805 5.49593C14.8452 5.09191 14.5207 4.60895 14.149 4.14434C13.422 3.23516 12.5144 2.3998 12.4861 2.37335C12.4287 2.39852 12.3701 2.42881 12.3093 2.4638C11.5339 2.92627 11.5519 3.55429 8.85927 2.26925C8.45253 2.07513 7.81673 2.198 7.46094 2.22146C10.1835 4.23649 13.1716 4.15031 15.1295 6.89062Z" fill="#BCBAB7"/>
<path d="M13.0397 14.4749C13.1438 14.3183 13.238 14.1729 13.3223 14.0406C13.4229 13.8763 13.5184 13.7082 13.6087 13.538C13.6498 13.4608 13.6896 13.3827 13.7286 13.3042C14.8341 11.087 15.1441 8.49981 15.1282 6.89052C13.7427 2.87924 9.70316 4.66815 8.4093 2.16718C8.38789 2.16846 7.41899 2.22477 7.39844 2.22691C7.4618 2.30754 7.52731 2.3869 7.59624 2.46625C8.10916 3.0499 9.31055 4.23425 10.6027 4.53632C11.8957 4.8388 12.9798 5.02653 14.0707 6.64563C15.1616 8.26601 14.0013 10.549 12.9798 12.791C12.5722 13.6852 12.5315 14.5837 12.472 15.4707C12.6381 15.242 12.6741 14.9758 12.871 14.7121C12.9284 14.6345 12.9845 14.5551 13.0397 14.4749Z" fill="#CCC9C6"/>
<path d="M14.0713 6.64672C12.9799 5.02676 11.8963 4.83904 10.6033 4.53698C9.3107 4.23534 8.10974 3.05013 7.59682 2.46649C7.52789 2.38799 7.46238 2.30778 7.39901 2.228C6.50761 2.3146 5.7926 3.02624 5.31008 4.04506C5.14438 4.39533 5.00566 4.78144 4.89648 5.19017C5.25356 4.88213 5.85768 4.59287 6.53458 4.52716C8.24118 4.1402 9.86772 4.87402 10.8118 6.92574C11.9588 9.41605 11.0554 10.9451 10.6928 12.7366C10.4667 13.8531 10.3515 15.8186 11.1483 17.6592C11.4253 17.1732 11.7246 16.5013 12.4726 15.4718C12.5321 14.5839 12.5723 13.6854 12.9799 12.7921C14.0019 10.5496 15.1618 8.26625 14.0713 6.64672Z" fill="#BBB8B5"/>
<mask id="mask0_549_2" style="mask-type:luminance" maskUnits="userSpaceOnUse" x="4" y="2" width="11" height="18">
<path d="M7.4611 2.22114C7.43969 2.22242 7.41914 2.22542 7.39816 2.22627C6.50675 2.31416 5.7926 3.02451 5.30922 4.04418C5.14395 4.39488 5.00481 4.78056 4.89648 5.19013C5.00395 5.09755 5.13197 5.00712 5.27839 4.92392C5.59651 4.74388 6.03365 4.57536 6.53458 4.52629C7.65076 4.41707 9.54703 4.69864 10.2706 6.72988C11.0357 8.87674 9.40318 13.0617 7.94019 16.0938C8.65049 17.3238 9.08592 18.1037 9.89084 19.4131C9.89084 19.4131 13.3713 14.1253 13.4106 14.0468C14.5157 11.8295 15.1314 9.11013 14.9665 6.93128C14.7037 3.43709 12.5137 2.39992 12.4854 2.37389C12.428 2.39864 12.369 2.42936 12.3086 2.46391C11.5336 2.92682 11.5135 3.66533 8.82089 2.38072C8.53275 2.24248 8.1487 2.20919 7.82331 2.20919C7.6893 2.20919 7.56471 2.21432 7.4611 2.22114Z" fill="white"/>
</mask>
<g mask="url(#mask0_549_2)">
<mask id="mask1_549_2" style="mask-type:luminance" maskUnits="userSpaceOnUse" x="-2" y="-2" width="24" height="25">
<mask id="mask2_549_2" style="mask-type:luminance" maskUnits="userSpaceOnUse" x="-14052" y="-13643" width="28060" height="27961">
<path d="M-14051.2 -13642.4H14007.5V14317.6H-14051.2V-13642.4Z" fill="white"/>
</mask>
<g mask="url(#mask2_549_2)">
<path d="M-1.1748 16.9266L6.37516 -1.37754L21.2015 4.69483L13.6515 22.999L-1.1748 16.9266Z" fill="url(#paint0_linear_549_2)"/>
</g>
</mask>
<g mask="url(#mask1_549_2)">
<path d="M7.4611 2.22114C7.43969 2.22242 7.41914 2.22542 7.39816 2.22627C6.50675 2.31416 5.7926 3.02451 5.30922 4.04418C5.14395 4.39488 5.00481 4.78056 4.89648 5.19013C5.00395 5.09755 5.13197 5.00712 5.27839 4.92392C5.59651 4.74388 6.03365 4.57536 6.53458 4.52629C7.65076 4.41707 9.54703 4.69864 10.2706 6.72988C11.0357 8.87674 9.40318 13.0617 7.94019 16.0938C8.65049 17.3238 9.08592 18.1037 9.89084 19.4131C9.89084 19.4131 13.3713 14.1253 13.4106 14.0468C14.5157 11.8295 15.1314 9.11013 14.9665 6.93128C14.7037 3.43709 12.5137 2.39992 12.4854 2.37389C12.428 2.39864 12.369 2.42936 12.3086 2.46391C11.5336 2.92682 11.5135 3.66533 8.82089 2.38072C8.53275 2.24248 8.1487 2.20919 7.82331 2.20919C7.6893 2.20919 7.56471 2.21432 7.4611 2.22114Z" fill="url(#paint1_linear_549_2)"/>
</g>
</g>
<mask id="mask3_549_2" style="mask-type:luminance" maskUnits="userSpaceOnUse" x="0" y="-1" width="73" height="34">
<path d="M0.171875 32.8096H72.3812V-0.0413851H0.171875V32.8096Z" fill="white"/>
</mask>
<g mask="url(#mask3_549_2)">
<path d="M6.3357 20.2862C5.13046 21.9612 3.28043 30.913 5.97006 30.5994C10.1925 30.0102 6.89529 21.4279 6.3357 20.2862Z" fill="#9A9794"/>
</g>
<mask id="mask4_549_2" style="mask-type:luminance" maskUnits="userSpaceOnUse" x="4" y="2" width="12" height="18">
<path d="M7.4611 2.22173C7.43969 2.22301 7.41914 2.226 7.39816 2.22686C6.50675 2.31475 5.7926 3.0251 5.30922 4.04477C5.14395 4.39547 5.00481 4.78114 4.89648 5.19072C5.00395 5.09814 5.13197 5.0077 5.27839 4.92451C5.59651 4.74447 6.03365 4.57594 6.53458 4.52688C7.65076 4.41766 9.54703 4.69923 10.2706 6.73047C11.0357 8.87733 9.40318 13.0623 7.94019 16.0944C8.65049 17.3244 9.26231 18.5804 9.95805 19.8301C9.95805 19.8301 13.6902 13.384 13.7288 13.305C14.8347 11.0873 15.3095 8.49122 15.1292 6.89132C14.9451 5.26539 14.6262 4.68344 14.2254 4.08401C14.0854 3.87411 12.5137 2.4005 12.4854 2.37448C12.428 2.39922 12.369 2.42994 12.3086 2.4645C11.5336 2.92741 11.5135 3.66592 8.82089 2.3813C8.53275 2.24307 8.1487 2.20978 7.82331 2.20978C7.6893 2.20978 7.56471 2.2149 7.4611 2.22173Z" fill="white"/>
</mask>
<g mask="url(#mask4_549_2)">
<mask id="mask5_549_2" style="mask-type:luminance" maskUnits="userSpaceOnUse" x="-1" y="-2" width="23" height="26">
<mask id="mask6_549_2" style="mask-type:luminance" maskUnits="userSpaceOnUse" x="-14052" y="-13643" width="28060" height="27961">
<path d="M-14051.2 -13642.4H14007.5V14317.6H-14051.2V-13642.4Z" fill="white"/>
</mask>
<g mask="url(#mask6_549_2)">
<path d="M14.0045 -1.22531L21.164 17.6224L6.20149 23.2656L-0.958008 4.4179L14.0045 -1.22531Z" fill="url(#paint2_linear_549_2)"/>
</g>
</mask>
<g mask="url(#mask5_549_2)">
<path d="M7.4611 2.22173C7.43969 2.22301 7.41914 2.226 7.39816 2.22686C6.50675 2.31475 5.7926 3.0251 5.30922 4.04477C5.14395 4.39547 5.00481 4.78114 4.89648 5.19072C5.00395 5.09814 5.13197 5.0077 5.27839 4.92451C5.59651 4.74447 6.03365 4.57594 6.53458 4.52688C7.65076 4.41766 9.54703 4.69923 10.2706 6.73047C11.0357 8.87733 9.40318 13.0623 7.94019 16.0944C8.65049 17.3244 9.26231 18.5804 9.95805 19.8301C9.95805 19.8301 13.6902 13.384 13.7288 13.305C14.8347 11.0873 15.3095 8.49122 15.1292 6.89132C14.9451 5.26539 14.6262 4.68344 14.2254 4.08401C14.0854 3.87411 12.5137 2.4005 12.4854 2.37448C12.428 2.39922 12.369 2.42994 12.3086 2.4645C11.5336 2.92741 11.5135 3.66592 8.82089 2.3813C8.53275 2.24307 8.1487 2.20978 7.82331 2.20978C7.6893 2.20978 7.56471 2.2149 7.4611 2.22173Z" fill="url(#paint3_linear_549_2)"/>
</g>
</g>
<mask id="mask7_549_2" style="mask-type:luminance" maskUnits="userSpaceOnUse" x="0" y="-1" width="73" height="34">
<path d="M0.171875 32.8096H72.3812V-0.0413851H0.171875V32.8096Z" fill="white"/>
</mask>
<g mask="url(#mask7_549_2)">
<mask id="mask8_549_2" style="mask-type:luminance" maskUnits="userSpaceOnUse" x="4" y="3" width="11" height="27">
<path d="M4.90234 3.31064H14.2182V29.2871H4.90234V3.31064Z" fill="white"/>
</mask>
<g mask="url(#mask8_549_2)">
<g opacity="0.279999">
<mask id="mask9_549_2" style="mask-type:luminance" maskUnits="userSpaceOnUse" x="4" y="3" width="11" height="27">
<path d="M9.15343 3.31117C8.00556 3.32312 7.16596 3.69557 7.13856 3.96137C12.5007 4.13629 12.931 7.87452 7.68916 17.3208C5.7017 20.9024 4.91219 24.1953 4.90234 26.4074V26.4906C4.90834 27.8853 5.23073 28.8354 5.75907 29.1345C5.94017 29.2369 6.13413 29.2851 6.32594 29.2881H6.3589C7.18823 29.2766 7.9559 28.4088 7.41771 27.2999C6.74809 25.921 7.31368 23.0766 9.0267 19.9694C10.7393 16.8609 16.7261 8.3161 13.0397 4.84452C11.8139 3.69003 10.4011 3.32269 9.26518 3.31117H9.15343Z" fill="white"/>
</mask>
<g mask="url(#mask9_549_2)">
<mask id="mask10_549_2" style="mask-type:luminance" maskUnits="userSpaceOnUse" x="-8" y="-3" width="37" height="39">
<mask id="mask11_549_2" style="mask-type:luminance" maskUnits="userSpaceOnUse" x="-14052" y="-13643" width="28060" height="27961">
<path d="M-14051.2 -13642.4H14007.5V14317.6H-14051.2V-13642.4Z" fill="white"/>
</mask>
<g mask="url(#mask11_549_2)">
<path d="M28.5756 9.30817L13.6268 35.0176L-7.45605 22.8455L7.49275 -2.86433L28.5756 9.30817Z" fill="url(#paint4_linear_549_2)"/>
</g>
</mask>
<g mask="url(#mask10_549_2)">
<path d="M9.15343 3.31215C8.00556 3.32409 7.16596 3.69655 7.13856 3.96234C12.5007 4.13727 12.931 7.87549 7.68916 17.3218C5.7017 20.9034 4.91219 24.1962 4.90234 26.4084V26.4916C4.90834 27.8863 5.23073 28.8364 5.75907 29.1355C5.94017 29.2378 6.13413 29.2861 6.32594 29.2891H6.3589C7.18823 29.2775 7.9559 28.4097 7.41771 27.3009C6.74809 25.922 7.31368 23.0776 9.0267 19.9703C10.7393 16.8618 16.7261 8.31707 13.0397 4.84549C11.8139 3.691 10.4011 3.32367 9.26518 3.31215H9.15343Z" fill="url(#paint5_linear_549_2)"/>
</g>
</g>
</g>
</g>
<mask id="mask12_549_2" style="mask-type:luminance" maskUnits="userSpaceOnUse" x="5" y="3" width="8" height="26">
<path d="M5.6875 3.63124H12.6366V28.6602H5.6875V3.63124Z" fill="white"/>
</mask>
<g mask="url(#mask12_549_2)">
<g opacity="0.330002">
<mask id="mask13_549_2" style="mask-type:luminance" maskUnits="userSpaceOnUse" x="5" y="3" width="8" height="26">
<path d="M5.6875 28.6602H12.6364V3.63168H5.6875V28.6602Z" fill="white"/>
</mask>
<g mask="url(#mask13_549_2)">
<path d="M6.66268 3.84658C6.96452 3.74888 7.27964 3.6947 7.59476 3.66184C7.91116 3.62814 8.23056 3.62259 8.54824 3.6435C9.18404 3.68573 9.82156 3.84061 10.3914 4.14864C10.9621 4.45326 11.446 4.91702 11.7949 5.46526C11.967 5.74087 12.1083 6.0344 12.2256 6.33688C12.3335 6.64151 12.426 6.95125 12.4902 7.26867C12.7518 8.54177 12.6319 9.86009 12.3665 11.1148C12.0967 12.3743 11.681 13.5945 11.1959 14.7737C10.7147 15.9559 10.1538 17.0972 9.58393 18.2257L8.71693 19.9071L7.86663 21.5863C7.31946 22.7092 6.79069 23.8398 6.42505 25.0165C6.33257 25.3105 6.25636 25.6074 6.19642 25.9082C6.1322 26.2068 6.08639 26.5102 6.07012 26.814C6.03287 27.4219 6.10052 28.0418 6.34542 28.6204L6.27178 28.6592C5.91556 28.122 5.74002 27.4663 5.69977 26.8152C5.65567 26.1625 5.73488 25.5089 5.86632 24.8753C5.99262 24.2392 6.18743 23.6231 6.39765 23.0173C6.60787 22.4106 6.85449 21.8201 7.10881 21.2356C8.13636 18.9036 9.34588 16.6889 10.4184 14.4328C10.683 13.8671 10.9459 13.3018 11.1784 12.7254C11.4151 12.1503 11.6322 11.5679 11.8073 10.9745C12.1601 9.79182 12.36 8.54518 12.1789 7.32413C12.1391 7.01951 12.0561 6.72086 11.967 6.42691C11.8677 6.13636 11.7452 5.85393 11.5941 5.58685C11.2854 5.05696 10.8474 4.60131 10.3122 4.28687C9.77917 3.97031 9.1652 3.79282 8.54139 3.72669C8.22884 3.69384 7.9133 3.68659 7.59861 3.70664C7.28435 3.72755 6.96966 3.7685 6.66482 3.85383L6.66268 3.84658Z" fill="#797775"/>
</g>
</g>
</g>
<mask id="mask14_549_2" style="mask-type:luminance" maskUnits="userSpaceOnUse" x="3" y="20" width="6" height="11">
<path d="M3.49609 20.0504H8.45093V30.792H3.49609V20.0504Z" fill="white"/>
</mask>
<g mask="url(#mask14_549_2)">
<g opacity="0.550003">
<mask id="mask15_549_2" style="mask-type:luminance" maskUnits="userSpaceOnUse" x="3" y="20" width="6" height="11">
<path d="M3.49609 27.1992C3.49609 29.0364 4.35111 30.1106 5.03272 30.5467C5.25065 30.6862 5.61843 30.7839 6.00847 30.792H6.11165C6.27093 30.7886 6.43191 30.7702 6.58647 30.7327C7.63714 30.4776 8.43265 29.4272 8.45106 27.4727V27.3319C8.44378 26.5512 8.31576 25.6313 8.03618 24.5669C7.94284 24.2106 7.19701 22.5988 7.04887 22.3134C6.74446 21.7289 6.044 20.3534 5.90143 20.0504C4.68335 22.7942 3.5205 26.2273 3.49609 27.1992Z" fill="white"/>
</mask>
<g mask="url(#mask15_549_2)">
<mask id="mask16_549_2" style="mask-type:luminance" maskUnits="userSpaceOnUse" x="3" y="20" width="7" height="11">
<mask id="mask17_549_2" style="mask-type:luminance" maskUnits="userSpaceOnUse" x="-14052" y="-13643" width="28060" height="27961">
<path d="M-14051.2 -13642.4H14007.5V14317.6H-14051.2V-13642.4Z" fill="white"/>
</mask>
<g mask="url(#mask17_549_2)">
<path d="M3.49609 20.0525H9.04832V30.8721H3.49609V20.0525Z" fill="url(#paint6_linear_549_2)"/>
</g>
</mask>
<g mask="url(#mask16_549_2)">
<path d="M3.49609 27.2002C3.49609 29.0373 4.35111 30.1116 5.03272 30.5476C5.25065 30.6872 5.61843 30.7849 6.00847 30.793H6.11165C6.27093 30.7896 6.43191 30.7712 6.58647 30.7337C7.63714 30.4785 8.43265 29.4282 8.45106 27.4737V27.3329C8.44378 26.5522 8.31576 25.6323 8.03618 24.5678C7.94284 24.2116 7.19701 22.5998 7.04887 22.3143C6.74446 21.7298 6.044 20.3543 5.90143 20.0514C4.68335 22.7952 3.5205 26.2283 3.49609 27.2002Z" fill="url(#paint7_linear_549_2)"/>
</g>
</g>
</g>
</g>
<mask id="mask18_549_2" style="mask-type:luminance" maskUnits="userSpaceOnUse" x="4" y="1" width="12" height="19">
<path d="M4.89648 1.99203H15.064V19.7139H4.89648V1.99203Z" fill="white"/>
</mask>
<g mask="url(#mask18_549_2)">
<g opacity="0.440002">
<mask id="mask19_549_2" style="mask-type:luminance" maskUnits="userSpaceOnUse" x="4" y="1" width="12" height="19">
<path d="M5.30922 4.04418C5.14395 4.39488 5.00566 4.78055 4.89648 5.19012C5.00309 5.09754 5.13239 5.00711 5.27882 4.92392C5.59651 4.74387 6.03365 4.57535 6.53373 4.52628C7.65077 4.41706 9.54618 4.69864 10.271 6.72988C11.0357 8.87674 9.40317 13.0617 7.94019 16.0938C8.65049 17.3238 9.30813 18.4642 10.0022 19.7139C10.0022 19.7139 13.6902 13.3834 13.7288 13.3044C14.8347 11.0872 15.8691 6.93125 14.1488 4.14443C13.5374 3.1542 12.6601 2.41142 12.631 2.3854C12.5162 2.40246 12.369 2.42935 12.3086 2.46391C11.5336 2.92681 11.8029 3.30267 9.05894 2.13111C8.83459 2.03512 8.59825 1.99245 8.35849 1.99245C7.09117 1.99245 5.71553 3.18748 5.30922 4.04418Z" fill="white"/>
</mask>
<g mask="url(#mask19_549_2)">
<mask id="mask20_549_2" style="mask-type:luminance" maskUnits="userSpaceOnUse" x="-1" y="-2" width="23" height="26">
<mask id="mask21_549_2" style="mask-type:luminance" maskUnits="userSpaceOnUse" x="-14052" y="-13643" width="28060" height="27961">
<path d="M-14051.2 -13642.4H14007.5V14317.6H-14051.2V-13642.4Z" fill="white"/>
</mask>
<g mask="url(#mask21_549_2)">
<path d="M6.15314 23.1982L-0.916016 3.61285L14.6116 -1.95226L21.6808 17.6331L6.15314 23.1982Z" fill="url(#paint8_linear_549_2)"/>
</g>
</mask>
<g mask="url(#mask20_549_2)">
<path d="M5.30922 4.04515C5.14395 4.39585 5.00566 4.78153 4.89648 5.1911C5.00309 5.09852 5.13239 5.00809 5.27882 4.92489C5.59651 4.74485 6.03365 4.57632 6.53373 4.52726C7.65077 4.41804 9.54618 4.69961 10.271 6.73085C11.0357 8.87771 9.40317 13.0626 7.94019 16.0948C8.65049 17.3248 9.30813 18.4652 10.0022 19.7148C10.0022 19.7148 13.6902 13.3843 13.7288 13.3054C14.8347 11.0882 15.8691 6.93223 14.1488 4.14541C13.5374 3.15517 12.6601 2.4124 12.631 2.38637C12.5162 2.40344 12.369 2.43033 12.3086 2.46488C11.5336 2.92779 11.8029 3.30365 9.05894 2.13209C8.83459 2.0361 8.59825 1.99343 8.35849 1.99343C7.09117 1.99343 5.71553 3.18846 5.30922 4.04515Z" fill="url(#paint9_linear_549_2)"/>
</g>
</g>
</g>
</g>
<mask id="mask22_549_2" style="mask-type:luminance" maskUnits="userSpaceOnUse" x="3" y="2" width="13" height="29">
<path d="M3.77734 2.1872H15.1454V30.7871H3.77734V2.1872Z" fill="white"/>
</mask>
<g mask="url(#mask22_549_2)">
<g opacity="0.440002">
<mask id="mask23_549_2" style="mask-type:luminance" maskUnits="userSpaceOnUse" x="3" y="2" width="13" height="29">
<path d="M8.36324 2.1872C7.47055 2.1936 6.47082 2.92019 6.09876 3.33617C5.66633 3.82041 5.00527 4.78075 4.8961 5.19033C5.25317 4.88272 5.85686 4.59262 6.53334 4.52649C7.65038 4.41727 9.54579 4.69884 10.2706 6.73008C11.0353 8.87694 9.40279 13.0619 7.9398 16.094C7.90555 16.1653 7.87044 16.2369 7.83576 16.3073C7.68891 16.5671 5.96176 19.877 5.90096 20.0503C4.83401 23.1169 3.80175 26.2592 3.77734 27.2306C3.77734 28.8941 4.36905 30.7611 6.02855 30.7871H6.09876C6.25247 30.785 6.41431 30.7671 6.586 30.7325C8.16501 30.4112 8.55762 27.8407 8.32043 26.5164C8.32043 26.5164 7.81093 24.3645 7.78695 24.3197C7.78695 24.3197 10.9219 18.0557 11.1479 17.6589C11.4236 17.173 13.6898 13.3836 13.7284 13.3046C14.8343 11.0874 15.2346 8.49681 15.1284 6.89093C15.0912 6.32563 14.5196 4.60968 14.1484 4.14464C13.421 3.23547 12.3686 2.42955 12.3082 2.46411C11.5333 2.92702 11.6553 3.30887 8.85904 2.26957C8.70961 2.2141 8.55248 2.18848 8.3915 2.1872H8.36324Z" fill="white"/>
</mask>
<g mask="url(#mask23_549_2)">
<mask id="mask24_549_2" style="mask-type:luminance" maskUnits="userSpaceOnUse" x="-6" y="-2" width="31" height="37">
<mask id="mask25_549_2" style="mask-type:luminance" maskUnits="userSpaceOnUse" x="-14052" y="-13643" width="28060" height="27961">
<path d="M-14051.2 -13642.4H14007.5V14317.6H-14051.2V-13642.4Z" fill="white"/>
</mask>
<g mask="url(#mask25_549_2)">
<path d="M5.08961 34.793L-5.57129 5.25617L13.9219 -1.73008L24.5828 27.8063L5.08961 34.793Z" fill="url(#paint10_linear_549_2)"/>
</g>
</mask>
<g mask="url(#mask24_549_2)">
<path d="M8.36324 2.18818C7.47055 2.19458 6.47082 2.92117 6.09876 3.33715C5.66633 3.82138 5.00527 4.78173 4.8961 5.19131C5.25317 4.8837 5.85686 4.5936 6.53334 4.52747C7.65038 4.41825 9.54579 4.69982 10.2706 6.73106C11.0353 8.87792 9.40279 13.0628 7.9398 16.095C7.90555 16.1662 7.87044 16.2379 7.83576 16.3083C7.68891 16.5681 5.96176 19.878 5.90096 20.0512C4.83401 23.1179 3.80175 26.2601 3.77734 27.2316C3.77734 28.8951 4.36905 30.7621 6.02855 30.7881H6.09876C6.25247 30.786 6.41431 30.768 6.586 30.7335C8.16501 30.4122 8.55762 27.8417 8.32043 26.5174C8.32043 26.5174 7.81093 24.3654 7.78695 24.3206C7.78695 24.3206 10.9219 18.0567 11.1479 17.6599C11.4236 17.174 13.6898 13.3845 13.7284 13.3056C14.8343 11.0884 15.2346 8.49779 15.1284 6.89191C15.0912 6.32661 14.5196 4.61065 14.1484 4.14561C13.421 3.23644 12.3686 2.43053 12.3082 2.46509C11.5333 2.928 11.6553 3.30984 8.85904 2.27054C8.70961 2.21508 8.55248 2.18946 8.3915 2.18818H8.36324Z" fill="url(#paint11_linear_549_2)"/>
</g>
</g>
</g>
</g>
</g>
<mask id="mask26_549_2" style="mask-type:luminance" maskUnits="userSpaceOnUse" x="5" y="4" width="6" height="13">
<path d="M6.50454 4.22586C6.3594 4.24079 5.85247 4.33935 5.5442 4.44131L5.37765 4.69557L5.27832 4.92384C5.59643 4.7438 6.03357 4.57527 6.53451 4.52621C7.65069 4.41699 9.54696 4.69856 10.2705 6.7298C11.0356 8.87666 9.4031 13.0616 7.94012 16.0937C7.90844 16.1598 7.8759 16.2251 7.84421 16.2908C8.0797 16.4879 8.26508 16.6377 8.26508 16.6377C8.30918 16.5652 8.33615 16.5054 8.37554 16.4308C9.88177 13.3026 11.3563 8.8724 10.5565 6.62954C10.2453 5.75792 9.70751 5.10516 8.95783 4.69047C8.91073 4.66487 8.62601 4.52792 8.52711 4.49037C8.47916 4.47075 8.43121 4.45283 8.38283 4.43577C8.28906 4.40334 7.99749 4.32397 7.94954 4.3133C7.76715 4.27149 7.57791 4.24162 7.38609 4.22456C7.24309 4.2109 7.09709 4.20495 6.95281 4.20495C6.80167 4.20495 6.65011 4.21135 6.50454 4.22586Z" fill="white"/>
</mask>
<g mask="url(#mask26_549_2)">
<mask id="mask27_549_2" style="mask-type:luminance" maskUnits="userSpaceOnUse" x="5" y="4" width="7" height="13">
<mask id="mask28_549_2" style="mask-type:luminance" maskUnits="userSpaceOnUse" x="-14052" y="-13643" width="28060" height="27961">
<path d="M-14051.2 -13642.4H14007.5V14317.6H-14051.2V-13642.4Z" fill="white"/>
</mask>
<g mask="url(#mask28_549_2)">
<path d="M11.3559 16.6377H5.27832V4.20495H11.3559V16.6377Z" fill="url(#paint12_linear_549_2)"/>
</g>
</mask>
<g mask="url(#mask27_549_2)">
<path d="M6.50454 4.22586C6.3594 4.24079 5.85247 4.33935 5.5442 4.44131L5.37765 4.69557L5.27832 4.92384C5.59643 4.7438 6.03357 4.57527 6.53451 4.52621C7.65069 4.41699 9.54696 4.69856 10.2705 6.7298C11.0356 8.87666 9.4031 13.0616 7.94012 16.0937C7.90844 16.1598 7.8759 16.2251 7.84421 16.2908C8.0797 16.4879 8.26508 16.6377 8.26508 16.6377C8.30918 16.5652 8.33615 16.5054 8.37554 16.4308C9.88177 13.3026 11.3563 8.8724 10.5565 6.62954C10.2453 5.75792 9.70751 5.10516 8.95783 4.69047C8.91073 4.66487 8.62601 4.52792 8.52711 4.49037C8.47916 4.47075 8.43121 4.45283 8.38283 4.43577C8.28906 4.40334 7.99749 4.32397 7.94954 4.3133C7.76715 4.27149 7.57791 4.24162 7.38609 4.22456C7.24309 4.2109 7.09709 4.20495 6.95281 4.20495C6.80167 4.20495 6.65011 4.21135 6.50454 4.22586Z" fill="url(#paint13_linear_549_2)"/>
</g>
</g>
<mask id="mask29_549_2" style="mask-type:luminance" maskUnits="userSpaceOnUse" x="0" y="-1" width="73" height="34">
<path d="M0.171875 32.8096H72.3812V-0.0413851H0.171875V32.8096Z" fill="white"/>
</mask>
<g mask="url(#mask29_549_2)">
<path d="M9.89105 19.413C9.77374 19.2172 9.70395 19.1097 9.70352 19.1092C9.65942 19.035 9.61789 18.9646 9.57508 18.8934C7.95154 15.9845 6.20341 13.4516 5.25292 11.0675C5.04355 10.4237 4.87872 9.78927 4.77639 9.18259C4.41803 7.44275 4.56788 6.42137 5.23451 5.0143C5.87545 3.66014 7.81367 1.97022 8.89817 2.48773C11.2367 3.6034 11.548 3.06498 12.1119 2.60677C12.1294 2.59354 12.1735 2.56112 12.1915 2.54448C12.2039 2.53509 12.2754 2.48902 12.2874 2.48048C18.4185 7.17652 11.846 16.2529 9.89105 19.413ZM6.15032 30.4178C5.98891 30.443 5.83434 30.4472 5.68663 30.4319C5.44216 30.3995 5.19726 30.3039 4.96306 30.143C4.6351 29.9178 4.39148 29.585 4.26604 29.2083C3.88541 28.0721 3.96505 25.8118 6.00132 20.6934C6.21326 21.1533 6.41277 21.5859 6.50054 21.7634C7.67881 24.1393 7.96181 26.3186 7.9631 27.6199C7.83594 29.2578 7.04386 30.251 6.15032 30.4178ZM14.8336 3.98951C14.7608 3.85043 14.4911 3.34614 14.3977 3.17249C14.3802 3.14007 14.3686 3.11916 14.3661 3.11447C13.1869 0.957374 13.1471 1.36695 12.4103 1.23725C12.3842 1.23256 12.3555 1.22445 12.3281 1.21805C11.4898 1.02606 10.0482 0.481241 9.34431 0.224403C8.61774 -0.041394 6.70349 0.529026 5.46785 0.649765C5.15273 0.68091 4.90997 0.738078 4.71559 0.813167C4.14744 1.03331 4.00615 1.40663 3.77153 1.71253C3.63452 1.89129 3.53776 1.94633 3.41102 1.97534C3.40888 1.97619 3.40546 1.97619 3.40375 1.97747C2.44255 2.32049 0.171653 5.11243 0.662311 8.96372C0.696563 9.34173 0.777055 9.71034 0.878955 10.0713C1.81831 13.7677 4.96049 18.7266 5.73202 20.1328C5.16344 21.437 3.95006 24.1137 3.56302 26.6348C3.54718 26.7201 3.45341 27.3008 3.44742 27.7854V27.7863C3.39561 29.0679 3.63623 30.2416 4.38292 31.0834C4.38763 31.0881 4.52935 31.2399 4.5362 31.2468C4.91682 31.6205 5.36681 31.8594 5.81979 32.0028C6.45987 32.2771 6.9471 32.1231 7.41764 32.0429C7.62871 32.1709 7.84878 32.2681 8.07313 32.3449C9.42052 32.8096 10.9285 32.4362 11.6349 32.0429C12.5824 31.7365 13.0135 31.1823 13.285 30.3235C13.5577 29.5146 13.9752 27.8622 13.0307 25.4184C12.6055 24.3625 11.7522 22.7101 10.4369 20.3094L10.4284 20.2953C11.4825 18.3067 14.3061 13.3867 14.8096 11.9485C14.8366 11.873 14.8601 11.7996 14.8837 11.7266C15.7374 9.5495 16.2949 6.66924 14.8336 3.98951Z" fill="#EFECE8"/>
<path d="M12.2935 15.6235C12.2049 15.766 11.9788 16.1031 11.6975 16.5186C10.9962 17.7009 10.3296 18.7035 9.8916 19.4117C10.0342 19.6408 10.3519 20.1566 10.4876 20.4023C10.47 20.3712 10.4538 20.3409 10.4371 20.3093L10.4281 20.2953C10.4957 20.1681 10.5711 20.0282 10.6524 19.8776C10.6554 19.078 12.0204 16.2447 12.2935 15.6235Z" fill="#DAD7D3"/>
<path d="M9.33569 0.752261C8.81806 0.475798 8.15742 0.497983 7.52762 0.60763C7.33538 0.641334 6.87598 0.729222 6.87598 0.729222C6.87598 0.729222 7.80463 0.956622 8.54618 1.21773C9.024 1.3999 9.82549 1.70836 10.7914 1.20066L10.8094 1.15928C10.3641 1.11192 9.82763 1.01507 9.33569 0.752261Z" fill="#BBB8B5"/>
</g>
<path d="M6.31354 0.97153C6.10118 1.05558 5.91536 1.12938 5.78349 1.20191C4.04093 2.16484 3.54599 3.11795 3.46336 3.19517C3.41369 3.53051 3.33748 3.78779 3.2998 4.19566C3.6222 4.3612 5.18537 4.05785 6.22449 3.24254C6.35336 3.13503 6.48908 3.03221 6.63037 2.93451C6.68517 2.89227 6.73527 2.86666 6.77723 2.83509C6.78408 2.83253 6.79007 2.81932 6.79649 2.81676C7.39076 2.28772 8.08993 0.990738 8.74371 1.31115C8.79594 1.33674 8.84775 1.3602 8.89827 1.38153C8.82121 1.33716 8.74371 1.29323 8.66536 1.25099C8.19697 1.00055 7.70117 0.817946 7.16256 0.817946C6.89154 0.817946 6.60896 0.864443 6.31354 0.97153Z" fill="url(#paint14_linear_549_2)"/>
<mask id="mask30_549_2" style="mask-type:luminance" maskUnits="userSpaceOnUse" x="0" y="-1" width="73" height="34">
<path d="M0.171875 32.8096H72.3812V-0.0413851H0.171875V32.8096Z" fill="white"/>
</mask>
<g mask="url(#mask30_549_2)">
<path d="M3.738 2.04777C3.66051 2.24019 3.59629 2.42578 3.55261 2.66384C3.52222 2.82724 3.4931 3.00558 3.46484 3.19629C4.56347 1.83786 5.67066 1.25678 5.78541 1.20259C5.91385 1.13945 6.26665 0.8984 6.42335 0.846776C5.23138 1.16889 4.56604 1.65313 3.85403 1.86773C3.82235 1.89631 3.75641 2.00255 3.738 2.04777Z" fill="#F6F2EE"/>
<path d="M9.57452 2.51837C7.75317 1.50083 6.81381 2.79526 6.81381 2.79526C6.80825 2.79697 6.80268 2.81489 6.79755 2.81702C6.15018 3.39384 5.5024 4.19763 5.23438 5.01465C5.87617 3.66006 7.8144 1.97014 8.8989 2.48808C11.4635 3.71126 11.5924 2.94885 12.2881 2.48083C11.7799 2.78673 11.3595 3.515 9.57452 2.51837Z" fill="#EBE7E3"/>
<path d="M12.1094 2.57112C10.914 3.06944 10.1069 2.09286 8.89954 1.38207C8.84859 1.35989 8.79721 1.33728 8.74498 1.31082C7.90623 0.894423 6.49463 3.10229 6.49805 3.10058C6.76779 2.90262 7.75381 1.50111 9.57516 2.51865C11.3597 3.51528 11.6256 2.94913 12.1107 2.60867C12.1351 2.59203 12.2888 2.4811 12.2888 2.4811C12.2888 2.4811 12.1338 2.55235 12.1107 2.57027L12.1094 2.57112Z" fill="#FFFBF7"/>
<path d="M6.22501 3.24248C5.18504 4.03049 3.62272 4.36071 3.30075 4.19603C3.15904 5.75284 2.81909 7.76573 3.16503 10.0402C3.31617 11.0334 3.51825 12.0906 3.68609 13.1367C3.25965 9.79527 3.16931 5.78398 6.22501 3.24248Z" fill="#EFECE8"/>
<path d="M4.7157 0.814392C4.14755 1.03454 4.00626 1.40742 3.77163 1.71332C3.63377 1.89251 3.53786 1.94755 3.41113 1.97656C3.49805 1.95822 3.6008 1.9339 3.71769 1.90531C4.03494 1.82596 4.30382 1.70863 4.61851 1.5704C4.90751 1.44326 5.23462 1.29906 5.65463 1.1284C5.88797 1.03369 6.3812 0.854923 6.64108 0.784954C6.9044 0.713705 7.58858 0.597658 7.62583 0.590405C7.62583 0.590405 7.88871 0.556701 7.97391 0.543901C7.94951 0.545608 5.07877 0.709012 4.7157 0.814392Z" fill="#EFECE8"/>
</g>
<mask id="mask31_549_2" style="mask-type:luminance" maskUnits="userSpaceOnUse" x="3" y="0" width="5" height="2">
<path d="M7.90253 0.548184C7.84173 0.552451 5.07889 0.709012 4.71625 0.814392C4.14853 1.03454 4.00681 1.40786 3.77218 1.71291C3.63432 1.89252 3.53841 1.94755 3.41211 1.97656C3.4986 1.95822 3.60135 1.93434 3.71738 1.9049C4.03507 1.82597 4.30437 1.70821 4.61906 1.56956C4.90763 1.44284 5.23517 1.29949 5.65561 1.12841C5.88809 1.0337 6.38132 0.854077 6.64078 0.784108C6.90495 0.713712 7.56258 0.599797 7.62595 0.590838C7.71329 0.578465 7.88926 0.556276 7.97446 0.54433C7.95006 0.545184 7.92608 0.546051 7.90253 0.548184Z" fill="white"/>
</mask>
<g mask="url(#mask31_549_2)">
<mask id="mask32_549_2" style="mask-type:luminance" maskUnits="userSpaceOnUse" x="3" y="0" width="5" height="2">
<mask id="mask33_549_2" style="mask-type:luminance" maskUnits="userSpaceOnUse" x="-14052" y="-13643" width="28060" height="27961">
<path d="M-14051.2 -13642.4H14007.5V14317.6H-14051.2V-13642.4Z" fill="white"/>
</mask>
<g mask="url(#mask33_549_2)">
<path d="M3.41211 0.54433H7.97403V1.97656H3.41211V0.54433Z" fill="url(#paint15_linear_549_2)"/>
</g>
</mask>
<g mask="url(#mask32_549_2)">
<path d="M7.90253 0.549161C7.84173 0.553427 5.07889 0.709989 4.71625 0.815369C4.14853 1.03552 4.00681 1.40883 3.77218 1.71388C3.63432 1.8935 3.53841 1.94853 3.41211 1.97754C3.4986 1.95919 3.60135 1.93531 3.71738 1.90588C4.03507 1.82695 4.30437 1.70919 4.61906 1.57053C4.90763 1.44382 5.23517 1.30047 5.65561 1.12939C5.88809 1.03467 6.38132 0.855053 6.64078 0.785084C6.90495 0.714688 7.56258 0.600774 7.62595 0.591815C7.71329 0.579442 7.88926 0.557253 7.97446 0.545307C7.95006 0.54616 7.92608 0.547028 7.90253 0.549161Z" fill="url(#paint16_linear_549_2)"/>
</g>
</g>
<mask id="mask34_549_2" style="mask-type:luminance" maskUnits="userSpaceOnUse" x="0" y="-1" width="73" height="34">
<path d="M0.171875 32.8096H72.3812V-0.0413851H0.171875V32.8096Z" fill="white"/>
</mask>
<g mask="url(#mask34_549_2)">
<path d="M12.0385 31.3438C12.0103 31.4031 11.988 31.4548 11.9589 31.506C11.8591 31.7009 11.7508 31.8818 11.6348 32.0439C12.5878 31.7351 13.0143 31.1919 13.2848 30.3237C12.2753 31.3801 12.0385 31.3438 12.0385 31.3438Z" fill="#D2CFCB"/>
<path d="M9.82394 31.6335C9.06483 31.302 8.45472 31.9522 8.07324 32.3464C9.42105 32.8102 10.9286 32.4373 11.6354 32.0435C11.7506 31.8818 11.8594 31.7013 11.9591 31.5064C11.5605 32.1668 10.5582 31.9543 9.82394 31.6335Z" fill="#DEDBD7"/>
<path d="M7.49081 30.507C7.87528 29.7527 8.07908 28.3862 7.96305 27.6208C7.83418 29.2536 7.04211 30.2515 6.1507 30.4183C5.98929 30.4439 5.83387 30.4477 5.68702 30.4324C5.44211 30.3999 5.19764 30.3048 4.96259 30.144C4.92363 30.1171 4.88638 30.0881 4.84956 30.0586C4.16923 29.8568 3.62163 29.2826 3.46064 28.5795C3.45936 28.5722 3.45636 28.5662 3.45508 28.5594C3.46193 28.6738 3.47263 28.7877 3.48633 28.8999L3.4889 28.9242C3.53086 29.2638 3.6015 29.5898 3.70683 29.8965C4.45652 31.2494 6.61396 32.2273 7.49081 30.507Z" fill="#EBE7E3"/>
<path d="M6.15003 30.4182C5.98862 30.4438 5.83406 30.4476 5.68635 30.4323C5.44231 30.3998 5.19698 30.3047 4.96278 30.1439C4.78338 30.0201 4.62882 29.8648 4.50466 29.6865C3.88941 29.0517 3.55032 27.9194 3.49594 27.1505L3.4938 27.1224V27.1237C3.47068 27.3276 3.4497 27.5669 3.44713 27.7867V27.7875C3.4283 28.253 3.44842 28.7039 3.51692 29.1306C3.51949 29.1383 3.52078 29.1464 3.52206 29.1553C4.20324 30.4459 6.09352 31.7331 7.35185 29.5594C7.02474 30.0402 6.60002 30.3341 6.15003 30.4182Z" fill="#F2EFEA"/>
<path d="M14.3663 3.11494C13.1872 0.957419 13.1474 1.36657 12.4105 1.2373C11.413 1.29063 10.2981 1.98434 8.89844 1.38193C10.8683 2.5569 12.5274 0.0222211 14.3933 3.16486C14.3946 3.16742 14.4164 3.20838 14.4181 3.21094C14.41 3.19686 14.404 3.18406 14.3971 3.17297C14.3804 3.14054 14.3689 3.11964 14.3663 3.11494Z" fill="#E7E4E0"/>
</g>
<mask id="mask35_549_2" style="mask-type:luminance" maskUnits="userSpaceOnUse" x="8" y="1" width="7" height="3">
<path d="M12.2877 2.47986C12.2988 2.47303 12.3112 2.46579 12.3228 2.45853C12.765 2.16842 13.6282 2.01525 14.398 3.17188C13.2673 1.26394 12.2136 1.43928 11.1205 1.61548C10.4068 1.73068 9.67638 1.84545 8.89844 1.38084C9.99407 2.08437 11.24 3.1275 12.2877 2.47986Z" fill="white"/>
</mask>
<g mask="url(#mask35_549_2)">
<mask id="mask36_549_2" style="mask-type:luminance" maskUnits="userSpaceOnUse" x="8" y="-2" width="8" height="8">
<mask id="mask37_549_2" style="mask-type:luminance" maskUnits="userSpaceOnUse" x="-14052" y="-13643" width="28060" height="27961">
<path d="M-14051.2 -13642.4H14007.5V14317.6H-14051.2V-13642.4Z" fill="white"/>
</mask>
<g mask="url(#mask37_549_2)">
<path d="M13.148 5.46875L8.09668 2.73782L10.1497 -1.03328L15.2009 1.69765L13.148 5.46875Z" fill="url(#paint17_linear_549_2)"/>
</g>
</mask>
<g mask="url(#mask36_549_2)">
<path d="M12.2877 2.47986C12.2988 2.47303 12.3112 2.46579 12.3228 2.45853C12.765 2.16842 13.6282 2.01525 14.398 3.17188C13.2673 1.26394 12.2136 1.43928 11.1205 1.61548C10.4068 1.73068 9.67638 1.84545 8.89844 1.38084C9.99407 2.08437 11.24 3.1275 12.2877 2.47986Z" fill="url(#paint18_linear_549_2)"/>
</g>
</g>
<mask id="mask38_549_2" style="mask-type:luminance" maskUnits="userSpaceOnUse" x="0" y="-1" width="73" height="34">
<path d="M0.171875 32.8096H72.3812V-0.0413851H0.171875V32.8096Z" fill="white"/>
</mask>
<g mask="url(#mask38_549_2)">
<path d="M5.8198 32.0029C6.31517 31.6945 6.73775 31.2631 7.07385 30.7627C6.13749 31.6202 4.1102 31.3421 3.51465 29.1146C3.6341 29.8676 3.90469 30.5438 4.38293 31.0835C4.38764 31.0891 4.52936 31.2405 4.53621 31.2469C4.91683 31.6215 5.36682 31.8596 5.8198 32.0029Z" fill="#CCC9C6"/>
<path d="M9.34453 0.224676C8.61754 -0.0411215 6.70371 0.530151 5.46765 0.650464C5.15296 0.681182 4.90934 0.739205 4.71582 0.813868C5.44667 0.655584 5.49719 0.813014 7.63836 0.574522C7.64907 0.572815 7.91923 0.54679 7.98816 0.54295C8.4694 0.511806 8.94379 0.54423 9.33511 0.753284C9.82706 1.01567 10.2912 1.1266 10.7369 1.17438C11.2913 1.23326 11.8171 1.19315 12.3274 1.21875C11.49 1.02633 10.0484 0.481514 9.34453 0.224676Z" fill="#F2EFEA"/>
</g>
<mask id="mask39_549_2" style="mask-type:luminance" maskUnits="userSpaceOnUse" x="4" y="0" width="9" height="2">
<path d="M8.7828 0.155975C7.88155 0.169627 6.45796 0.554462 5.46808 0.65131C5.15296 0.681601 4.90977 0.739623 4.71582 0.814712C5.4548 0.667094 5.5293 0.813026 7.63922 0.57496C7.64906 0.573254 7.92008 0.547223 7.98773 0.542957C8.46982 0.512239 8.94336 0.544655 9.33511 0.753283C9.82706 1.01652 10.2916 1.1266 10.7369 1.17396C11.0713 1.21023 11.3945 1.21023 11.7113 1.20938C11.9198 1.20938 12.1249 1.20936 12.3283 1.21875C11.4896 1.02676 10.0484 0.482803 9.34539 0.225111C9.22037 0.179887 9.06238 0.158961 8.87785 0.155975H8.7828Z" fill="white"/>
</mask>
<g mask="url(#mask39_549_2)">
<mask id="mask40_549_2" style="mask-type:luminance" maskUnits="userSpaceOnUse" x="4" y="0" width="9" height="2">
<mask id="mask41_549_2" style="mask-type:luminance" maskUnits="userSpaceOnUse" x="-14052" y="-13643" width="28060" height="27961">
<path d="M-14051.2 -13642.4H14007.5V14317.6H-14051.2V-13642.4Z" fill="white"/>
</mask>
<g mask="url(#mask41_549_2)">
<path d="M4.71582 0.156535H12.3283V1.21973H4.71582V0.156535Z" fill="url(#paint19_linear_549_2)"/>
</g>
</mask>
<g mask="url(#mask40_549_2)">
<path d="M8.7828 0.156951C7.88155 0.170604 6.45796 0.555439 5.46808 0.652286C5.15296 0.682578 4.90977 0.740599 4.71582 0.815688C5.4548 0.66807 5.5293 0.814003 7.63922 0.575937C7.64906 0.57423 7.92008 0.5482 7.98773 0.543934C8.46982 0.513215 8.94336 0.545632 9.33511 0.75426C9.82706 1.0175 10.2916 1.12758 10.7369 1.17494C11.0713 1.2112 11.3945 1.21121 11.7113 1.21035C11.9198 1.21035 12.1249 1.21034 12.3283 1.21973C11.4896 1.02774 10.0484 0.483779 9.34539 0.226088C9.22037 0.180864 9.06238 0.159938 8.87785 0.156951H8.7828Z" fill="url(#paint20_linear_549_2)"/>
</g>
</g>
<mask id="mask42_549_2" style="mask-type:luminance" maskUnits="userSpaceOnUse" x="0" y="-1" width="73" height="34">
<path d="M0.171875 32.8096H72.3812V-0.0413851H0.171875V32.8096Z" fill="white"/>
</mask>
<g mask="url(#mask42_549_2)">
<path d="M10.737 1.174L10.6787 1.20344C9.88067 1.63264 9.1434 1.4334 8.66602 1.25123C8.74394 1.29304 8.82229 1.33655 8.8985 1.38263C10.2981 1.98505 11.413 1.29048 12.4106 1.23715C12.3845 1.23245 12.3558 1.2252 12.3284 1.21837C11.818 1.19278 11.2923 1.23331 10.737 1.174Z" fill="#EBE7E3"/>
<path d="M12.2942 25.5195C11.3878 21.5343 9.41573 18.9394 7.67873 16.8135C6.20419 15.0105 5.40227 13.0659 5.0332 11.3064C5.0696 11.71 5.10299 12.1332 5.13039 12.5641C5.46649 15.0084 6.38101 17.9117 9.0715 21.1968C11.5162 24.1812 12.0339 24.5882 12.2942 25.5195Z" fill="#FFFBF7"/>
<path d="M14.4438 3.25808C14.4438 3.25894 14.4721 3.32336 14.4721 3.32336C14.4789 3.33872 14.6416 3.72141 14.6476 3.73635C15.1019 4.79868 14.6322 5.67372 14.5423 5.82433C15.1978 8.13544 14.5106 10.7798 13.4462 13.1835C12.9825 14.2364 12.9997 15.1801 12.8652 15.8457C12.8665 15.8423 12.8687 15.8389 12.8699 15.8363C13.7541 14.207 14.5624 12.6574 14.8103 11.95C14.8373 11.8741 14.8608 11.8007 14.8844 11.7273C15.7377 9.55061 16.2956 6.67079 14.8347 3.99105C14.7709 3.86989 14.5594 3.47396 14.4438 3.25808Z" fill="#EBE7E3"/>
<path d="M12.2881 2.48129C12.9337 2.9762 13.382 3.55984 13.7665 4.13965C13.6359 3.22024 13.403 2.30765 12.631 2.38573C12.5338 2.39639 12.4435 2.41388 12.351 2.45228C12.348 2.45314 12.3399 2.44076 12.2881 2.48129Z" fill="#DEDBD7"/>
<path d="M14.6679 3.716C14.6619 3.70107 14.2089 3.04618 13.9511 2.78465C13.6677 2.47874 13.2567 2.29657 12.897 2.30595C12.5656 2.31449 12.4355 2.4028 12.3327 2.45315C12.3165 2.4604 12.2976 2.47533 12.2891 2.4813C13.3937 2.16516 13.6043 3.22963 13.7675 4.13881C14.1224 4.67424 14.3771 5.23911 14.5428 5.82617C14.6058 5.70842 15.0755 4.7617 14.6679 3.716Z" fill="#CCC9C6"/>
<path d="M8.07346 32.3457C8.55342 31.9549 8.9486 31.5287 9.45424 31.5453C9.09032 31.53 7.73266 31.8205 7.41797 32.0436C7.62947 32.1708 7.84954 32.2689 8.07346 32.3457Z" fill="#D2CFCB"/>
<path d="M12.7137 28.2235C12.6996 27.8514 12.6576 27.4832 12.5887 27.1274C12.4513 26.4183 12.2016 25.7583 11.8176 25.2182C10.4017 23.2283 7.0082 19.5597 6.12793 16.7016C6.38353 18.4931 5.94768 20.6472 6.66782 21.7052C6.91273 22.0197 7.14949 22.3298 7.37555 22.6336C9.1027 24.6875 11.1129 25.8786 11.0495 28.7922C11.0157 30.3358 10.4946 30.8866 9.73294 31.5982C9.76248 31.608 9.79288 31.6195 9.82456 31.6332C10.5597 31.9523 11.5611 32.1661 11.9593 31.506C12.4735 30.5039 12.7664 29.5759 12.7137 28.2235Z" fill="#EFECE8"/>
<path d="M11.1818 29.0391C11.6386 25.2919 9.46746 23.2846 7.39908 20.9227C7.15974 20.6573 6.46871 20.3553 6.73973 20.9773C7.90729 22.8063 8.68609 24.5807 8.87105 25.3188C9.96155 29.6752 8.76359 31.0533 7.41877 32.0439C7.73303 31.8204 9.09112 31.5298 9.45419 31.5456C9.54324 31.5482 9.63572 31.5648 9.73291 31.5981C10.3524 31.0187 10.7844 30.7141 11.0285 29.7917C11.0632 29.6637 11.094 29.5212 11.1253 29.3638C11.1454 29.2622 11.1676 29.1547 11.1818 29.0391Z" fill="#E7E4E0"/>
<path d="M9.58631 26.3012C9.08152 24.2866 7.88484 21.1418 5.76123 18.396C5.72869 18.4941 5.54116 19.0867 5.38574 19.5274C5.52703 19.7702 5.6452 19.975 5.73211 20.1337C5.84129 20.3444 5.91151 20.4908 6.00142 20.6947C6.21335 21.1546 6.4133 21.5872 6.50064 21.7647C7.67933 24.1407 7.96191 26.3195 7.9632 27.6212C8.05097 29.2527 7.23149 31.1248 5.81988 32.0033C6.46039 32.2784 6.94763 32.1244 7.41859 32.0442C8.56774 31.6274 10.6768 30.6581 9.58631 26.3012Z" fill="#F2EFEA"/>
</g>
<mask id="mask43_549_2" style="mask-type:luminance" maskUnits="userSpaceOnUse" x="0" y="1" width="5" height="16">
<path d="M2.41266 3.18553C0.987785 5.12632 0.635419 8.27324 1.20486 9.94354C1.93228 12.0789 2.25767 13.1348 4.05461 15.9916C4.21988 16.254 3.12339 11.8869 2.88362 10.8246C2.66441 9.85266 1.99907 5.88147 3.40597 2.75121C3.53655 2.46067 3.68555 2.14069 3.85338 1.86764C3.28865 2.16288 2.80913 2.64626 2.41266 3.18553Z" fill="white"/>
</mask>
<g mask="url(#mask43_549_2)">
<mask id="mask44_549_2" style="mask-type:luminance" maskUnits="userSpaceOnUse" x="-1" y="1" width="7" height="16">
<mask id="mask45_549_2" style="mask-type:luminance" maskUnits="userSpaceOnUse" x="-14052" y="-13643" width="28060" height="27961">
<path d="M-14051.2 -13642.4H14007.5V14317.6H-14051.2V-13642.4Z" fill="white"/>
</mask>
<g mask="url(#mask45_549_2)">
<path d="M5.04908 1.91578L4.20691 16.46L-0.195312 16.207L0.646427 1.66277L5.04908 1.91578Z" fill="url(#paint21_linear_549_2)"/>
</g>
</mask>
<g mask="url(#mask44_549_2)">
<path d="M2.41266 3.18651C0.987785 5.1273 0.635419 8.27421 1.20486 9.94451C1.93228 12.0799 2.25767 13.1358 4.05461 15.9926C4.21988 16.2549 3.12339 11.8879 2.88362 10.8255C2.66441 9.85364 1.99907 5.88245 3.40597 2.75218C3.53655 2.46164 3.68555 2.14167 3.85338 1.86862C3.28865 2.16385 2.80913 2.64723 2.41266 3.18651Z" fill="url(#paint22_linear_549_2)"/>
</g>
</g>
<mask id="mask46_549_2" style="mask-type:luminance" maskUnits="userSpaceOnUse" x="0" y="-1" width="73" height="34">
<path d="M0.171875 32.8096H72.3812V-0.0413851H0.171875V32.8096Z" fill="white"/>
</mask>
<g mask="url(#mask46_549_2)">
<path d="M6.90847 2.22711C6.25511 2.54069 5.69039 3.00659 5.21514 3.53434C4.73861 4.0638 4.36912 4.67902 4.11052 5.33477C3.59503 6.65352 3.55564 8.11135 3.78127 9.50732C3.99363 10.9135 4.50313 12.2728 4.79342 13.7059C4.9407 14.4201 5.0229 15.1543 4.99935 15.8852C4.97409 16.6156 4.84522 17.34 4.62002 18.0273C4.76088 17.3178 4.83537 16.5994 4.80626 15.8852C4.78485 15.171 4.66369 14.4657 4.49457 13.7716C4.32117 13.0783 4.10923 12.391 3.90073 11.6973C3.69864 11.0018 3.50983 10.2945 3.39508 9.5679C3.28462 8.84219 3.24052 8.10196 3.30003 7.36473C3.33557 6.99696 3.38652 6.63005 3.47729 6.27082C3.56334 5.91116 3.67852 5.55662 3.83051 5.21915C4.12679 4.53994 4.55194 3.91917 5.07771 3.40379C5.60604 2.89566 6.21958 2.46305 6.90847 2.22711Z" fill="#CCC9C6"/>
<path d="M5.42783 19.4707C5.57297 19.0854 5.66588 18.6853 5.70998 18.2791C5.74551 17.8721 5.7545 17.4634 5.7241 17.0551C5.68086 16.238 5.55541 15.4257 5.43254 14.6134C5.31394 13.8002 5.17693 12.9887 5.0669 12.1734C4.95087 11.359 4.91234 10.5415 4.83398 9.72238L5.57982 14.5912C5.7027 15.4048 5.81701 16.2227 5.84484 17.0499C5.86111 17.4634 5.83671 17.8781 5.78704 18.2885C5.71683 18.6972 5.60594 19.0987 5.42783 19.4707Z" fill="#CCC9C6"/>
<path d="M3.37671 2.81696C3.21744 3.33491 3.07358 3.85669 2.96825 4.38572C2.85522 4.9139 2.77216 5.44721 2.71993 5.98307C2.61161 7.05436 2.61161 8.13633 2.72335 9.20634C2.82825 10.2776 3.07915 11.3293 3.34717 12.3763C3.47946 12.9011 3.62289 13.4233 3.7432 13.9532C3.85581 14.4826 3.96327 15.0215 3.947 15.5654C3.92217 15.0232 3.79801 14.4954 3.65629 13.9741C3.51586 13.4523 3.35915 12.9343 3.2093 12.4138C2.90617 11.3737 2.65913 10.3096 2.53668 9.22597C2.48059 8.68371 2.45619 8.13889 2.46304 7.59449C2.47032 7.0501 2.49858 6.5057 2.57008 5.96643C2.64115 5.4263 2.74305 4.89172 2.87406 4.36439C3.0115 3.8392 3.17505 3.32083 3.37671 2.81696Z" fill="#CCC9C6"/>
<path d="M2.35842 3.26334C2.11951 3.71345 1.95767 4.19811 1.8258 4.6879C1.69522 5.17811 1.60402 5.67771 1.53167 6.17858C1.39551 7.18247 1.37967 8.20086 1.48457 9.20475C1.58904 10.2086 1.83008 11.1993 2.23297 12.1221C2.43891 12.5795 2.6714 13.036 2.90046 13.4857C3.12566 13.9392 3.38555 14.3748 3.62788 14.8262C3.46518 14.6282 3.31148 14.4247 3.16205 14.2161C3.01691 14.0062 2.87605 13.7911 2.74375 13.5718C2.61488 13.35 2.49072 13.126 2.37512 12.8982C2.2578 12.6729 2.14649 12.44 2.04373 12.2032C1.63827 11.256 1.40194 10.2432 1.30346 9.22309C1.20156 8.20129 1.25722 7.17052 1.41435 6.16109C1.49613 5.6568 1.60916 5.15635 1.7603 4.6687C1.91186 4.1819 2.0934 3.69894 2.35842 3.26334Z" fill="#DEDBD7"/>
<path d="M3.46289 3.19531C3.93 2.48794 4.57522 1.90942 5.27696 1.42816C5.63061 1.18925 6.01251 0.987444 6.42225 0.845799C6.56996 0.796735 6.71982 0.754071 6.87566 0.729326C6.93646 0.719087 7.00068 0.713967 7.06276 0.7097C7.17408 0.704581 7.28668 0.702448 7.39886 0.72122C7.51275 0.734872 7.6215 0.771137 7.72125 0.805268C8.53773 1.09496 9.24503 1.58133 9.96047 2.02034C10.3188 2.23921 10.6845 2.44954 11.0814 2.5754C11.2783 2.63855 11.4855 2.67737 11.6928 2.66329C11.9 2.65049 12.1051 2.5882 12.2875 2.48069C12.1158 2.60441 11.9115 2.68633 11.6975 2.71235C11.483 2.74094 11.265 2.71363 11.0565 2.66158C10.6387 2.55108 10.2589 2.34715 9.88811 2.14279C9.14999 1.72852 8.44996 1.24428 7.66046 0.981471C7.55984 0.9499 7.46736 0.918328 7.37103 0.904676C7.2747 0.887183 7.17408 0.888037 7.07389 0.890596C6.87352 0.901689 6.67186 0.94734 6.47663 1.00963C6.08359 1.13634 5.71409 1.33601 5.35702 1.55232C5.0008 1.77118 4.66342 2.02248 4.34616 2.29681C4.02505 2.5673 3.72535 2.86467 3.46289 3.19531Z" fill="#CCC9C6"/>
<path d="M12.2871 2.48143C12.4558 2.34362 12.6716 2.25232 12.8994 2.23654C13.1259 2.22032 13.3575 2.27365 13.56 2.37647C13.9201 2.55822 14.1864 2.81634 14.3962 3.17344C14.4022 3.18368 14.4244 3.22378 14.4441 3.26133C14.457 3.28522 14.469 3.30869 14.4758 3.32148C14.7019 3.73831 14.847 4.14192 14.8646 4.58477C14.8873 5.02592 14.7866 5.46536 14.5417 5.82715C14.7361 5.44957 14.8042 5.01482 14.7657 4.5916C14.7233 4.16794 14.5837 3.75666 14.3675 3.39145C14.1538 3.02753 13.8601 2.70413 13.4958 2.49892C13.3134 2.39823 13.1104 2.33637 12.9019 2.32997C12.6926 2.324 12.4802 2.37733 12.2871 2.48143Z" fill="#BBB8B5"/>
<path d="M5.90527 18.3084C6.10693 19.2432 6.41862 20.1502 6.85748 20.9937C7.07198 21.4182 7.31559 21.8269 7.58362 22.2194L7.99378 22.8069L8.19844 23.1039C8.26608 23.2028 8.32688 23.3078 8.39153 23.4085C8.65142 23.8134 8.8732 24.2404 9.0847 24.673C9.28422 25.1108 9.45505 25.5617 9.58821 26.0246C9.71537 26.488 9.80999 26.9607 9.85237 27.439C9.89861 27.9168 9.90589 28.1182 9.88834 28.5947C9.87678 28.1173 9.85537 27.9176 9.78858 27.4462C9.72564 26.9739 9.62717 26.5076 9.48802 26.0537C9.3463 25.5997 9.16263 25.1603 8.96568 24.7285C8.75332 24.3036 8.53111 23.8825 8.26994 23.484C8.20529 23.3842 8.14363 23.2822 8.07684 23.1841L7.87176 22.8914C7.73689 22.6968 7.5956 22.5006 7.46288 22.3009C7.19614 21.9003 6.95338 21.483 6.74145 21.0517C6.32015 20.1861 6.035 19.256 5.90527 18.3084Z" fill="#CCC9C6"/>
<path d="M5.63867 15.7329C5.71103 16.3784 5.88015 17.0085 6.0741 17.6267C6.26891 18.2445 6.50268 18.8504 6.77669 19.4361C7.32643 20.6073 8.02817 21.7148 8.93584 22.6351C9.16405 22.8599 9.40252 23.0937 9.61574 23.342C9.83024 23.5908 10.0255 23.8557 10.204 24.1317C10.5602 24.683 10.833 25.2884 11.0094 25.9198C11.3056 26.9796 11.3446 28.0987 11.1605 29.1746C11.1245 29.3816 11.0796 29.5881 11.0273 29.792C11.1549 29.1542 11.2183 28.5061 11.1956 27.8597C11.1785 27.2138 11.0813 26.57 10.8951 25.9535C10.7067 25.3379 10.4425 24.7444 10.0876 24.2064C9.91074 23.938 9.71679 23.6795 9.50485 23.4376C9.29292 23.1927 9.06172 22.9747 8.82923 22.7388C7.91685 21.7955 7.20313 20.6751 6.67393 19.4839C6.4102 18.887 6.18542 18.2727 6.00517 17.6468C5.91654 17.3332 5.83905 17.0175 5.77354 16.6984C5.70932 16.3797 5.65366 16.0576 5.63867 15.7329Z" fill="#D2CFCB"/>
<path d="M13.4092 14.0479C13.7487 13.3908 14.0274 12.7095 14.2715 12.0183C14.5159 11.3276 14.7185 10.6223 14.8816 9.90858C15.0421 9.19523 15.1556 8.4708 15.201 7.74124C15.219 7.37689 15.2198 7.00955 15.18 6.64733L15.1517 6.37428L15.0948 6.10593L15.0674 5.97111C15.0558 5.92631 15.037 5.8845 15.0233 5.84098L14.9351 5.5786C15.2819 6.23818 15.3654 7.00699 15.3637 7.74551C15.3637 8.11797 15.3371 8.48957 15.2892 8.85904C15.2442 9.22766 15.1809 9.59414 15.0995 9.95722C14.9424 10.6834 14.7223 11.395 14.4479 12.0849C14.1713 12.7726 13.8322 13.4399 13.4092 14.0479Z" fill="#FFFBF7"/>
</g>
<mask id="mask47_549_2" style="mask-type:luminance" maskUnits="userSpaceOnUse" x="5" y="13" width="9" height="19">
<path d="M5.32833 13.785C5.30221 13.66 5.28594 13.59 5.28594 13.59C5.28594 13.59 5.30007 13.6591 5.32833 13.785ZM5.23242 19.2639C5.30307 19.3851 5.36087 19.4802 5.42166 19.5886C5.44992 19.6389 5.48118 19.6914 5.50986 19.7413C7.92205 23.9433 11.7035 27.0087 9.57856 30.3263C9.38889 30.6228 9.19493 30.927 8.86269 31.2227C9.24674 30.9074 9.5473 30.9449 9.81575 30.9833C10.0983 31.0234 10.3467 31.064 10.6224 30.6907C10.7003 30.5853 10.8043 30.415 10.8934 30.1949C10.9414 30.0793 10.9842 29.9517 11.0274 29.7909C11.0274 29.7909 12.1868 31.3502 13.3197 30.2175C13.7012 28.9521 13.8532 27.0459 12.1599 24.9745C10.2332 22.6177 9.03224 22.3797 7.47592 19.7234C6.24499 17.6235 5.50729 14.579 5.32833 13.785C5.50901 14.6438 6.16065 18.0962 5.23242 19.2639Z" fill="white"/>
</mask>
<g mask="url(#mask47_549_2)">
<mask id="mask48_549_2" style="mask-type:luminance" maskUnits="userSpaceOnUse" x="5" y="13" width="9" height="19">
<mask id="mask49_549_2" style="mask-type:luminance" maskUnits="userSpaceOnUse" x="-14052" y="-13643" width="28060" height="27961">
<path d="M-14051.2 -13642.4H14007.5V14317.6H-14051.2V-13642.4Z" fill="white"/>
</mask>
<g mask="url(#mask49_549_2)">
<path d="M5.23242 13.5923H13.8532V31.3525H5.23242V13.5923Z" fill="url(#paint23_linear_549_2)"/>
</g>
</mask>
<g mask="url(#mask48_549_2)">
<path d="M5.32833 13.786C5.30221 13.661 5.28594 13.591 5.28594 13.591C5.28594 13.591 5.30007 13.6601 5.32833 13.786ZM5.23242 19.2649C5.30307 19.3861 5.36087 19.4812 5.42166 19.5896C5.44992 19.6399 5.48118 19.6924 5.50986 19.7423C7.92205 23.9443 11.7035 27.0097 9.57856 30.3273C9.38889 30.6238 9.19493 30.928 8.86269 31.2236C9.24674 30.9083 9.5473 30.9459 9.81575 30.9843C10.0983 31.0244 10.3467 31.0649 10.6224 30.6916C10.7003 30.5863 10.8043 30.416 10.8934 30.1959C10.9414 30.0802 10.9842 29.9527 11.0274 29.7918C11.0274 29.7918 12.1868 31.3512 13.3197 30.2185C13.7012 28.9531 13.8532 27.0468 12.1599 24.9755C10.2332 22.6187 9.03224 22.3806 7.47592 19.7244C6.24499 17.6244 5.50729 14.58 5.32833 13.786C5.50901 14.6448 6.16065 18.0972 5.23242 19.2649Z" fill="url(#paint24_linear_549_2)"/>
</g>
</g>
<mask id="mask50_549_2" style="mask-type:luminance" maskUnits="userSpaceOnUse" x="2" y="2" width="5" height="13">
<path d="M2.97935 4.15009C2.63298 5.67064 2.41548 7.89812 2.76271 10.1725C2.91384 11.167 3.65282 13.3382 3.82023 14.3848C3.39508 11.0437 1.80023 4.65054 6.90975 2.22594C5.69295 2.52672 3.30132 4.31392 2.97935 4.15009Z" fill="white"/>
</mask>
<g mask="url(#mask50_549_2)">
<mask id="mask51_549_2" style="mask-type:luminance" maskUnits="userSpaceOnUse" x="1" y="1" width="7" height="14">
<mask id="mask52_549_2" style="mask-type:luminance" maskUnits="userSpaceOnUse" x="-14052" y="-13643" width="28060" height="27961">
<path d="M-14051.2 -13642.4H14007.5V14317.6H-14051.2V-13642.4Z" fill="white"/>
</mask>
<g mask="url(#mask52_549_2)">
<path d="M1.81431 14.6553L1.15625 2.26179L6.89515 1.95929L7.55321 14.3524L1.81431 14.6553Z" fill="url(#paint25_linear_549_2)"/>
</g>
</mask>
<g mask="url(#mask51_549_2)">
<path d="M2.97935 4.15107C2.63298 5.67162 2.41548 7.8991 2.76271 10.1735C2.91384 11.168 3.65282 13.3392 3.82023 14.3857C3.39508 11.0447 1.80023 4.65151 6.90975 2.22691C5.69295 2.52769 3.30132 4.3149 2.97935 4.15107Z" fill="url(#paint26_linear_549_2)"/>
</g>
</g>
<mask id="mask53_549_2" style="mask-type:luminance" maskUnits="userSpaceOnUse" x="0" y="0" width="16" height="33">
<path d="M8.7829 0.154935C7.88165 0.168587 6.45806 0.553422 5.46818 0.65027C5.15306 0.680561 4.90987 0.738583 4.71592 0.813672C4.1482 1.03382 4.00648 1.40714 3.77185 1.71219C3.63399 1.8918 3.53808 1.94683 3.41178 1.97584C3.40878 1.97627 3.40579 1.97628 3.40365 1.97756C2.44245 2.32101 0.171981 5.11293 0.662211 8.96422C0.697319 9.34223 0.777383 9.71042 0.87971 10.0709C1.81778 13.7678 4.96082 18.7258 5.73235 20.1329C5.16376 21.4367 3.95039 24.1138 3.56335 26.6349C3.54708 26.7206 3.45374 27.3 3.44775 27.7851C3.39551 29.0684 3.63699 30.2408 4.38368 31.083C4.38796 31.0886 4.52968 31.2405 4.5361 31.2469C4.91672 31.621 5.36713 31.8591 5.81926 32.0024C6.45977 32.2763 6.94829 32.1232 7.41796 32.0434C7.62904 32.1705 7.84911 32.2686 8.07303 32.345C9.42084 32.8092 10.9284 32.4368 11.6352 32.0434C12.5827 31.7366 13.0147 31.1816 13.2853 30.3232C13.558 29.5143 13.9755 27.8623 13.031 25.4185C12.6054 24.3626 11.7525 22.7106 10.4364 20.3099L10.4283 20.2954C11.4824 18.3068 14.3064 13.3872 14.8095 11.9486C14.8365 11.8726 14.8605 11.7993 14.884 11.7259C15.7373 9.54916 16.2952 6.6689 14.8339 3.99002C14.7611 3.84965 14.4914 3.34665 14.3981 3.17215C14.3809 3.14058 14.3694 3.11969 14.3664 3.11499C13.1873 0.957041 13.1474 1.36618 12.4106 1.23648C12.3841 1.23265 12.3558 1.22454 12.3284 1.21771C11.4897 1.02572 10.0485 0.481763 9.34549 0.224071C9.22047 0.178847 9.06249 0.157921 8.87795 0.154935H8.7829ZM9.70342 19.1089C9.65975 19.0347 9.61779 18.9647 9.57541 18.893C7.95187 15.985 6.20374 13.4516 5.25368 11.068C5.04346 10.4238 4.87905 9.78937 4.77672 9.18226C4.41836 7.44327 4.56778 6.42104 5.23484 5.01483C5.87577 3.66024 7.814 1.97031 8.8985 2.4874C10.0909 3.05654 10.7468 3.19093 11.1797 3.13845C11.5954 3.08726 11.8018 2.86156 12.0779 2.6363C12.1353 2.58638 12.2757 2.48952 12.2877 2.48013C12.9355 2.97717 13.3821 3.55741 13.7674 4.13764C17.035 9.05639 11.6404 16.5866 9.89095 19.4131C9.77321 19.2169 9.70428 19.1093 9.70342 19.1089ZM5.68653 30.4315C5.44206 30.3995 5.19759 30.3035 4.96253 30.1436C4.63543 29.9179 4.39138 29.5846 4.26551 29.2088C3.88574 28.0713 3.96538 25.8114 6.00122 20.6939C6.21401 21.153 6.41396 21.586 6.50044 21.7635C7.67871 24.1394 7.96171 26.3183 7.96343 27.6204C7.83627 29.2574 7.04376 30.2511 6.15022 30.4179C6.05217 30.4332 5.95627 30.4405 5.8625 30.4405C5.80299 30.4405 5.74433 30.4371 5.68653 30.4315Z" fill="white"/>
</mask>
<g mask="url(#mask53_549_2)">
<mask id="mask54_549_2" style="mask-type:luminance" maskUnits="userSpaceOnUse" x="0" y="0" width="18" height="33">
<mask id="mask55_549_2" style="mask-type:luminance" maskUnits="userSpaceOnUse" x="-14052" y="-13643" width="28060" height="27961">
<path d="M-14051.2 -13642.4H14007.5V14317.6H-14051.2V-13642.4Z" fill="white"/>
</mask>
<g mask="url(#mask55_549_2)">
<path d="M17.0354 32.8086H0.171875V0.153905H17.0354V32.8086Z" fill="url(#paint27_linear_549_2)"/>
</g>
</mask>
<g mask="url(#mask54_549_2)">
<path d="M8.7829 0.154935C7.88165 0.168587 6.45806 0.553422 5.46818 0.65027C5.15306 0.680561 4.90987 0.738583 4.71592 0.813672C4.1482 1.03382 4.00648 1.40714 3.77185 1.71219C3.63399 1.8918 3.53808 1.94683 3.41178 1.97584C3.40878 1.97627 3.40579 1.97628 3.40365 1.97756C2.44245 2.32101 0.171981 5.11293 0.662211 8.96422C0.697319 9.34223 0.777383 9.71042 0.87971 10.0709C1.81778 13.7678 4.96082 18.7258 5.73235 20.1329C5.16376 21.4367 3.95039 24.1138 3.56335 26.6349C3.54708 26.7206 3.45374 27.3 3.44775 27.7851C3.39551 29.0684 3.63699 30.2408 4.38368 31.083C4.38796 31.0886 4.52968 31.2405 4.5361 31.2469C4.91672 31.621 5.36713 31.8591 5.81926 32.0024C6.45977 32.2763 6.94829 32.1232 7.41796 32.0434C7.62904 32.1705 7.84911 32.2686 8.07303 32.345C9.42084 32.8092 10.9284 32.4368 11.6352 32.0434C12.5827 31.7366 13.0147 31.1816 13.2853 30.3232C13.558 29.5143 13.9755 27.8623 13.031 25.4185C12.6054 24.3626 11.7525 22.7106 10.4364 20.3099L10.4283 20.2954C11.4824 18.3068 14.3064 13.3872 14.8095 11.9486C14.8365 11.8726 14.8605 11.7993 14.884 11.7259C15.7373 9.54916 16.2952 6.6689 14.8339 3.99002C14.7611 3.84965 14.4914 3.34665 14.3981 3.17215C14.3809 3.14058 14.3694 3.11969 14.3664 3.11499C13.1873 0.957041 13.1474 1.36618 12.4106 1.23648C12.3841 1.23265 12.3558 1.22454 12.3284 1.21771C11.4897 1.02572 10.0485 0.481763 9.34549 0.224071C9.22047 0.178847 9.06249 0.157921 8.87795 0.154935H8.7829ZM9.70342 19.1089C9.65975 19.0347 9.61779 18.9647 9.57541 18.893C7.95187 15.985 6.20374 13.4516 5.25368 11.068C5.04346 10.4238 4.87905 9.78937 4.77672 9.18226C4.41836 7.44327 4.56778 6.42104 5.23484 5.01483C5.87577 3.66024 7.814 1.97031 8.8985 2.4874C10.0909 3.05654 10.7468 3.19093 11.1797 3.13845C11.5954 3.08726 11.8018 2.86156 12.0779 2.6363C12.1353 2.58638 12.2757 2.48952 12.2877 2.48013C12.9355 2.97717 13.3821 3.55741 13.7674 4.13764C17.035 9.05639 11.6404 16.5866 9.89095 19.4131C9.77321 19.2169 9.70428 19.1093 9.70342 19.1089ZM5.68653 30.4315C5.44206 30.3995 5.19759 30.3035 4.96253 30.1436C4.63543 29.9179 4.39138 29.5846 4.26551 29.2088C3.88574 28.0713 3.96538 25.8114 6.00122 20.6939C6.21401 21.153 6.41396 21.586 6.50044 21.7635C7.67871 24.1394 7.96171 26.3183 7.96343 27.6204C7.83627 29.2574 7.04376 30.2511 6.15022 30.4179C6.05217 30.4332 5.95627 30.4405 5.8625 30.4405C5.80299 30.4405 5.74433 30.4371 5.68653 30.4315Z" fill="url(#paint28_linear_549_2)"/>
</g>
</g>
<mask id="mask56_549_2" style="mask-type:luminance" maskUnits="userSpaceOnUse" x="0" y="0" width="16" height="33">
<path d="M8.82829 0.155049C7.93003 0.155902 6.47433 0.552246 5.46818 0.650801C5.15306 0.681092 4.90987 0.739113 4.71592 0.814202C4.1482 1.03435 4.00648 1.40767 3.77185 1.71272C3.63399 1.89233 3.53808 1.94736 3.41178 1.97637C3.40878 1.9768 3.40579 1.97681 3.40365 1.97809C2.44245 2.32154 0.171981 5.11347 0.662211 8.96476C0.697319 9.34276 0.777383 9.71095 0.87971 10.0715C1.81778 13.7683 4.96082 18.7263 5.73235 20.1334C5.16376 21.4372 3.95039 24.1144 3.56335 26.6354C3.54708 26.7211 3.45374 27.3005 3.44775 27.7865C3.39551 29.069 3.63699 30.2414 4.38368 31.0835C4.38796 31.0891 4.52968 31.241 4.5361 31.2474C4.91672 31.6215 5.36713 31.8596 5.81926 32.003C6.45977 32.2769 6.94829 32.1237 7.41796 32.0439C7.62904 32.1711 7.84911 32.2692 8.07303 32.3455C8.53072 32.503 9.0064 32.564 9.46323 32.5614C10.3516 32.555 11.169 32.3033 11.6352 32.0439C12.5827 31.7372 13.0147 31.1821 13.2853 30.3237C13.558 29.5148 13.9755 27.8628 13.031 25.419C12.6054 24.3631 11.7525 22.7111 10.4364 20.3104L10.4283 20.2959C11.4824 18.3074 14.3064 13.3877 14.8095 11.9491C14.8365 11.8732 14.8605 11.7998 14.884 11.7264C15.7373 9.54969 16.2952 6.66943 14.8339 3.99055C14.7611 3.85104 14.4914 3.34718 14.3981 3.17268C14.3809 3.14111 14.3694 3.12022 14.3664 3.11552C13.1873 0.957572 13.1474 1.36671 12.4106 1.23702C12.3841 1.23318 12.3558 1.22507 12.3284 1.21824C11.4897 1.02625 10.0485 0.482293 9.34549 0.224602C9.21191 0.175965 9.03851 0.155049 8.83728 0.155049H8.82829ZM9.70342 19.1094C9.65975 19.0352 9.61779 18.9652 9.57541 18.8936C7.95187 15.9856 6.20374 13.4522 5.25368 11.0685C5.04346 10.4243 4.87905 9.7899 4.77672 9.18279C4.41836 7.4438 4.56778 6.42157 5.23484 5.01536C5.87577 3.66077 7.814 1.97084 8.8985 2.48793C10.0909 3.05707 10.7468 3.19146 11.1797 3.13899C11.5954 3.08779 11.8018 2.86209 12.0779 2.63683C12.1353 2.58691 12.2757 2.49005 12.2877 2.48067C12.9355 2.9777 13.3821 3.55794 13.7674 4.13817C17.035 9.05692 11.6404 16.5871 9.89095 19.4136C9.77321 19.2174 9.70428 19.1099 9.70342 19.1094ZM5.68653 30.4321C5.44206 30.4001 5.19759 30.3041 4.96253 30.1441C4.63543 29.9184 4.39138 29.5852 4.26551 29.2093C3.88574 28.0719 3.96538 25.812 6.00122 20.6944C6.21401 21.1535 6.41396 21.5865 6.50044 21.764C7.67871 24.14 7.96171 26.3188 7.96343 27.6209C7.83627 29.258 7.04376 30.2516 6.15022 30.4184C6.05217 30.4338 5.95627 30.441 5.8625 30.441C5.80299 30.441 5.74433 30.4376 5.68653 30.4321Z" fill="white"/>
</mask>
<g mask="url(#mask56_549_2)">
<mask id="mask57_549_2" style="mask-type:luminance" maskUnits="userSpaceOnUse" x="0" y="0" width="18" height="33">
<mask id="mask58_549_2" style="mask-type:luminance" maskUnits="userSpaceOnUse" x="-14052" y="-13643" width="28060" height="27961">
<path d="M-14051.2 -13642.4H14007.5V14317.6H-14051.2V-13642.4Z" fill="white"/>
</mask>
<g mask="url(#mask58_549_2)">
<path d="M17.0354 32.5654H0.171875V0.156062H17.0354V32.5654Z" fill="url(#paint29_linear_549_2)"/>
</g>
</mask>
<g mask="url(#mask57_549_2)">
<path d="M8.82829 0.156025C7.93003 0.156879 6.47433 0.553223 5.46818 0.651777C5.15306 0.682069 4.90987 0.74009 4.71592 0.815179C4.1482 1.03533 4.00648 1.40864 3.77185 1.71369C3.63399 1.89331 3.53808 1.94834 3.41178 1.97735C3.40878 1.97778 3.40579 1.97779 3.40365 1.97907C2.44245 2.32251 0.171981 5.11444 0.662211 8.96573C0.697319 9.34374 0.777383 9.71193 0.87971 10.0724C1.81778 13.7693 4.96082 18.7273 5.73235 20.1344C5.16376 21.4382 3.95039 24.1153 3.56335 26.6364C3.54708 26.7221 3.45374 27.3015 3.44775 27.7874C3.39551 29.0699 3.63699 30.2423 4.38368 31.0845C4.38796 31.0901 4.52968 31.242 4.5361 31.2484C4.91672 31.6225 5.36713 31.8606 5.81926 32.0039C6.45977 32.2778 6.94829 32.1247 7.41796 32.0449C7.62904 32.172 7.84911 32.2702 8.07303 32.3465C8.53072 32.504 9.0064 32.565 9.46323 32.5624C10.3516 32.556 11.169 32.3043 11.6352 32.0449C12.5827 31.7381 13.0147 31.1831 13.2853 30.3247C13.558 29.5158 13.9755 27.8638 13.031 25.42C12.6054 24.3641 11.7525 22.7121 10.4364 20.3114L10.4283 20.2969C11.4824 18.3083 14.3064 13.3887 14.8095 11.9501C14.8365 11.8741 14.8605 11.8008 14.884 11.7274C15.7373 9.55067 16.2952 6.67041 14.8339 3.99153C14.7611 3.85201 14.4914 3.34815 14.3981 3.17366C14.3809 3.14209 14.3694 3.12119 14.3664 3.1165C13.1873 0.958549 13.1474 1.36769 12.4106 1.23799C12.3841 1.23415 12.3558 1.22604 12.3284 1.21922C11.4897 1.02723 10.0485 0.48327 9.34549 0.225579C9.21191 0.176942 9.03851 0.156025 8.83728 0.156025H8.82829ZM9.70342 19.1104C9.65975 19.0362 9.61779 18.9662 9.57541 18.8945C7.95187 15.9866 6.20374 13.4532 5.25368 11.0695C5.04346 10.4253 4.87905 9.79088 4.77672 9.18377C4.41836 7.44478 4.56778 6.42254 5.23484 5.01633C5.87577 3.66175 7.814 1.97182 8.8985 2.48891C10.0909 3.05805 10.7468 3.19244 11.1797 3.13996C11.5954 3.08876 11.8018 2.86307 12.0779 2.6378C12.1353 2.58789 12.2757 2.49103 12.2877 2.48164C12.9355 2.97868 13.3821 3.55891 13.7674 4.13915C17.035 9.05789 11.6404 16.5881 9.89095 19.4146C9.77321 19.2184 9.70428 19.1108 9.70342 19.1104ZM5.68653 30.433C5.44206 30.401 5.19759 30.3051 4.96253 30.1451C4.63543 29.9194 4.39138 29.5862 4.26551 29.2103C3.88574 28.0729 3.96538 25.813 6.00122 20.6954C6.21401 21.1545 6.41396 21.5875 6.50044 21.765C7.67871 24.1409 7.96171 26.3198 7.96343 27.6219C7.83627 29.2589 7.04376 30.2526 6.15022 30.4194C6.05217 30.4348 5.95627 30.442 5.8625 30.442C5.80299 30.442 5.74433 30.4386 5.68653 30.433Z" fill="url(#paint30_linear_549_2)"/>
</g>
</g>
<mask id="mask59_549_2" style="mask-type:luminance" maskUnits="userSpaceOnUse" x="0" y="-1" width="73" height="34">
<path d="M0.171875 32.8096H72.3812V-0.0413851H0.171875V32.8096Z" fill="white"/>
</mask>
<g mask="url(#mask59_549_2)">
<path d="M8.5557 28.0908C8.5861 26.5933 8.30181 25.1163 7.83084 23.7118C7.35731 22.3047 6.69454 20.968 5.92772 19.6962C5.54667 19.0571 5.14892 18.4176 4.776 17.7695C4.40309 17.1197 4.03702 16.467 3.68936 15.8031C2.99405 14.4776 2.34027 13.1251 1.84961 11.7095C2.15317 12.3938 2.47728 13.0641 2.82964 13.7233C3.1743 14.385 3.53395 15.0386 3.9013 15.6888C4.63429 16.99 5.40624 18.2636 6.18632 19.5422C6.95614 20.8328 7.61634 22.1985 8.05091 23.6422C8.26969 24.3624 8.43239 25.1001 8.52316 25.8463C8.61093 26.592 8.6272 27.3472 8.5557 28.0908Z" fill="#E1DEDA"/>
<mask id="mask60_549_2" style="mask-type:luminance" maskUnits="userSpaceOnUse" x="1" y="11" width="11" height="19">
<path d="M1.84961 11.7102H11.4556V29.1504H1.84961V11.7102Z" fill="white"/>
</mask>
<g mask="url(#mask60_549_2)">
<g opacity="0.429993">
<path d="M2.82878 13.724C3.17344 14.3853 3.53395 15.0398 3.90044 15.6895C4.05158 15.9575 4.204 16.2245 4.35856 16.4908C4.80127 17.1934 5.29663 17.917 5.83995 18.6189C8.3322 21.8417 9.89837 25.1247 8.76935 28.293C8.56426 28.8698 8.66744 29.1403 8.92733 29.1514H8.96158C9.6783 29.1224 11.4273 27.3236 11.4555 24.6157V24.4835C11.4363 22.6233 10.6018 20.3493 8.08773 17.9315C4.17959 14.9736 1.84961 11.7111 1.84961 11.7111C2.15274 12.395 2.47642 13.0653 2.82878 13.724Z" fill="url(#paint31_linear_549_2)"/>
</g>
</g>
<path d="M6.00074 20.6945C5.91083 20.4906 5.84062 20.3443 5.73144 20.1335C5.16328 21.4377 3.94991 24.1149 3.56244 26.6359C3.54702 26.7213 3.45326 27.3019 3.44727 27.7874C3.45583 27.874 3.46867 27.9555 3.48537 28.0302C3.82703 29.4996 4.35879 29.7496 4.58015 29.7871C4.44185 29.6165 4.33567 29.4206 4.26546 29.2094C3.88526 28.0729 3.96447 25.8121 6.00074 20.6945Z" fill="#F2EFEA"/>
<path d="M13.0306 25.4186C12.6054 24.3636 11.7526 22.7112 10.4364 20.3096L10.4283 20.2964C10.4283 20.2964 9.57543 18.894 9.57457 18.8936C7.95146 15.9856 6.20376 13.4526 5.25284 11.0677C5.04348 10.4243 4.87821 9.78992 4.77631 9.18281C4.77546 9.18025 4.77546 9.17811 4.77503 9.17555C4.77417 9.17129 4.77375 9.16787 4.77246 9.16446C4.86494 9.75493 4.84097 10.3663 5.03192 11.3071C5.40184 13.0665 6.20376 15.0107 7.67745 16.8141C9.4153 18.9392 11.3874 21.5349 12.2937 25.5197C12.4102 26.0321 12.5845 27.1747 12.6534 28.2345C12.7364 29.5123 12.4967 30.4044 12.039 31.3451C12.0501 31.3609 12.3254 31.7261 13.1231 30.6164C13.1873 30.5196 13.2382 30.4214 13.2849 30.3237C13.5576 29.5148 13.9755 27.8633 13.0306 25.4186Z" fill="#FFFBF7"/>
</g>
<path d="M1.77539 6.12895C1.77539 6.78854 2.31186 7.32227 2.97378 7.32227C3.63612 7.32227 4.17259 6.78854 4.17259 6.12895C4.17259 5.46936 3.63612 4.93434 2.97378 4.93434C2.31186 4.93434 1.77539 5.46936 1.77539 6.12895ZM3.13391 5.56406C3.01274 5.51756 2.93653 5.40237 2.93567 5.2795C2.94809 5.27864 2.96051 5.27609 2.97378 5.27609C3.1703 5.27609 3.34926 5.34393 3.49355 5.45571C3.43575 5.53635 3.34156 5.58411 3.24351 5.58411C3.20669 5.58411 3.16987 5.57772 3.13391 5.56406ZM2.17657 5.8222C2.24978 5.63405 2.3885 5.48046 2.56361 5.38446C2.59059 5.42926 2.60685 5.48257 2.60685 5.53761C2.60685 5.70826 2.46856 5.84608 2.29773 5.84608C2.25449 5.84608 2.21467 5.83841 2.17657 5.8222ZM2.78967 6.43143L2.63554 6.14218C2.61841 6.10933 2.62441 6.06922 2.64924 6.04234L2.87873 5.80684C2.90442 5.77996 2.94466 5.77228 2.97763 5.78892L3.27348 5.9331C3.30731 5.94932 3.32614 5.98473 3.32058 6.02185L3.27477 6.34652C3.26963 6.38363 3.24094 6.41266 3.20498 6.41906L2.88087 6.47536C2.87616 6.47622 2.87059 6.47622 2.86589 6.47622C2.8342 6.47622 2.80509 6.45959 2.78967 6.43143ZM3.55349 6.1891C3.55349 6.04319 3.65582 5.92245 3.79111 5.88917C3.81423 5.96597 3.82965 6.0449 3.82965 6.12895C3.82965 6.25268 3.80224 6.36999 3.75344 6.47622C3.63698 6.4327 3.55349 6.32051 3.55349 6.1891ZM2.14445 6.33032C2.16929 6.32392 2.1954 6.31964 2.2228 6.31964C2.39278 6.31964 2.53193 6.45704 2.53193 6.6277C2.53193 6.69852 2.50795 6.76165 2.46771 6.8137C2.30844 6.69638 2.19241 6.52743 2.14445 6.33032ZM2.89714 6.97411C2.91641 6.82265 3.04485 6.70577 3.20198 6.70577C3.30517 6.70577 3.39636 6.7574 3.45288 6.83547C3.31672 6.92763 3.15189 6.98137 2.97378 6.98137C2.94723 6.98137 2.92197 6.97667 2.89714 6.97411Z" fill="url(#paint32_linear_549_2)"/>
<path d="M3.11523 3.96354L3.39182 4.44141L3.87134 4.16577L3.59476 3.68794L3.11523 3.96354Z" fill="url(#paint33_linear_549_2)"/>
<path d="M2.43555 8.24731L2.83458 8.63086L3.21949 8.23495L2.82088 7.8501L2.43555 8.24731Z" fill="url(#paint34_linear_549_2)"/>
<path d="M10.4771 28.3086C10.4343 28.3645 10.4111 28.458 10.4009 28.5778C10.3906 28.6994 10.3949 28.8082 10.4039 28.9119C10.3589 28.8628 10.2699 28.8466 10.2223 28.8829C10.2347 28.9311 10.251 28.975 10.2574 29.0267C10.2626 29.0625 10.2626 29.1022 10.263 29.1406C10.1795 29.2016 10.0832 29.2844 10.0699 29.4388C10.0678 29.4636 10.0686 29.4862 10.0686 29.5096C10.0374 29.4115 9.98299 29.3112 9.95602 29.2259C9.93162 29.15 9.88794 29.077 9.84513 29.0386C9.83271 29.0262 9.81644 29.0224 9.80146 29.0134C9.79204 29.0386 9.78476 29.0655 9.77534 29.0885C9.77149 29.1001 9.76978 29.112 9.76507 29.135C9.73638 29.1056 9.71326 29.0787 9.68457 29.0578C9.66317 29.0425 9.63748 29.0356 9.61136 29.0305C9.55656 29.0181 9.54714 29.0314 9.54714 29.1111C9.54714 29.1372 9.54585 29.1649 9.545 29.199C9.42554 29.1534 9.35918 29.2498 9.36175 29.2524C9.38701 29.2758 9.40927 29.2903 9.41484 29.3266C9.42041 29.3607 9.40671 29.4145 9.38958 29.461C9.35533 29.5531 9.37802 29.7097 9.44438 29.7707C9.49191 29.8147 9.5801 29.8066 9.64219 29.7464C9.71412 29.6799 9.73638 29.4742 9.69613 29.4102C9.67173 29.3718 9.6546 29.3714 9.60708 29.4038C9.61949 29.4307 9.64433 29.4567 9.6409 29.487C9.63748 29.5211 9.6135 29.5685 9.5891 29.5954C9.5557 29.6312 9.51802 29.6346 9.49105 29.6052C9.44396 29.5527 9.4431 29.4618 9.48677 29.3765C9.49919 29.3531 9.53001 29.3091 9.54585 29.2971C9.6135 29.2481 9.69356 29.234 9.7428 29.269C9.7976 29.3078 9.831 29.3705 9.83785 29.4635C9.85069 29.6257 9.76635 29.8783 9.77406 30.0395C9.77962 30.1889 9.88666 30.2477 10.0113 30.272C10.0661 30.2827 10.2078 30.2989 10.2369 30.3096C10.385 30.3625 10.5135 30.3544 10.5922 30.2183C10.6732 30.0788 10.7173 29.8155 10.8038 29.6769C10.8538 29.5979 10.9116 29.5578 10.9784 29.5467C11.0392 29.5386 11.1035 29.5856 11.1411 29.6607C11.1506 29.6786 11.1565 29.731 11.1574 29.7583C11.1557 29.8539 11.1125 29.9346 11.0469 29.9589C11.008 29.973 10.9759 29.9542 10.9635 29.9064C10.9545 29.8719 10.9553 29.8189 10.9686 29.7861C10.9793 29.7583 11.0127 29.7473 11.0362 29.7285C11.0093 29.6777 10.9939 29.6696 10.9545 29.6931C10.889 29.7323 10.8205 29.9213 10.8538 30.0126C10.88 30.0941 10.9553 30.141 11.0174 30.1236C11.106 30.0988 11.1904 29.9751 11.2041 29.8757C11.2101 29.8279 11.2238 29.7741 11.2435 29.7456C11.2653 29.7153 11.2914 29.7127 11.3261 29.7042C11.3287 29.7033 11.3308 29.6973 11.3355 29.6901C11.3162 29.5856 11.2443 29.6026 11.1878 29.5745C11.2024 29.5425 11.2139 29.5186 11.2268 29.4943C11.264 29.4234 11.2614 29.4072 11.2066 29.3949C11.1814 29.388 11.1557 29.3812 11.1287 29.3859C11.0945 29.3906 11.0606 29.4055 11.0217 29.4183C11.0277 29.3957 11.0315 29.3842 11.0337 29.3731C11.0371 29.3475 11.0427 29.3198 11.0461 29.2937C11.0392 29.2946 11.0332 29.2946 11.0272 29.2937C11.0161 29.2937 11.0054 29.2929 10.9939 29.2963C10.9391 29.3117 10.9022 29.3458 10.8324 29.3868C10.7674 29.4251 10.6834 29.522 10.6154 29.6193C10.6235 29.5856 10.6329 29.5527 10.6453 29.5224C10.6894 29.4102 10.6813 29.3411 10.6376 29.2874L10.588 29.2071C10.5931 29.1952 10.5987 29.1815 10.6038 29.1657C10.6269 29.0907 10.6625 29.0322 10.6903 28.958C10.6779 28.9106 10.5931 28.8667 10.537 28.8863C10.5687 28.7848 10.5905 28.6743 10.5914 28.5454C10.5905 28.4277 10.5627 28.3551 10.531 28.2992C10.5263 28.2911 10.5195 28.2877 10.5126 28.2877C10.5006 28.2877 10.4874 28.2967 10.4771 28.3086ZM8.30037 29.7033C8.2811 29.6363 8.26141 29.5685 8.24043 29.4955C8.15138 29.513 8.09828 29.5809 8.05975 29.6534C8.02207 29.7255 8.00238 29.8057 7.97327 29.8795C7.9373 29.8488 7.90133 29.8164 7.86451 29.784C7.74977 29.9192 7.73093 30.0609 7.83497 30.2264C7.92017 30.3612 8.02079 30.4849 8.11712 30.6074C8.22673 30.7477 8.33805 30.8817 8.34575 31.0652C8.35389 31.2367 8.26141 31.3864 8.11498 31.5089C7.99895 31.6066 7.87008 31.6428 7.70824 31.6437C7.7031 31.6437 7.6894 31.6915 7.68683 31.7004C7.70139 31.7674 7.82213 31.7371 7.88292 31.7218C8.33976 31.6066 8.63475 31.261 8.49775 30.9111C8.44508 30.7721 8.26698 30.5511 8.1989 30.4162C8.14196 30.3057 8.09101 30.194 8.11541 30.0634C8.14581 29.9094 8.29652 29.7592 8.4879 29.7908C8.59665 29.8083 8.68271 29.8979 8.68185 30.0067C8.68099 30.0766 8.62105 30.1692 8.55169 30.1995C8.50674 30.2183 8.46007 30.2247 8.42539 30.1923C8.39371 30.1607 8.39371 30.1214 8.41469 30.0788C8.41811 30.0719 8.41897 30.0643 8.42068 30.0562C8.35046 30.0617 8.26227 30.1573 8.27211 30.2319C8.29052 30.3625 8.58509 30.4666 8.72038 30.3778C8.84455 30.2976 8.91134 30.1099 8.86681 29.9589C8.82357 29.813 8.75763 29.7366 8.61848 29.6918C8.6035 29.6858 8.59066 29.6798 8.57952 29.6739C8.60735 29.6039 8.63004 29.5433 8.65359 29.4768C8.64503 29.4763 8.63604 29.4764 8.62705 29.4764C8.47377 29.4764 8.38771 29.5723 8.30037 29.7033ZM9.34762 30.2405C9.25857 30.2784 9.15153 30.3847 9.1314 30.458C9.17508 30.4465 9.21575 30.432 9.25343 30.4256C9.33521 30.4154 9.39043 30.4555 9.40499 30.5314C9.41698 30.5958 9.36988 30.7089 9.30438 30.764C9.1982 30.854 9.08602 30.9333 8.97599 31.0165C8.84797 31.1108 8.7906 31.2226 8.80002 31.3497C8.81158 31.5195 8.95501 31.6407 8.98027 31.665C8.75806 31.9462 8.49432 32.1808 8.2263 32.3942C8.29994 32.4155 8.37401 32.436 8.44765 32.4522C8.68913 32.2474 8.92461 32.0298 9.15239 31.7811C9.34591 31.866 9.58268 31.8847 9.76849 31.7422C9.88795 31.6501 9.94318 31.5383 9.99113 31.421C10.0275 31.3322 10.0554 31.2422 10.0862 31.1518C10.129 31.0289 10.2185 30.9299 10.3122 30.8932C10.3983 30.8599 10.4497 30.9022 10.4574 31.014C10.4578 31.0289 10.4587 31.0426 10.4604 31.0673C10.5195 30.9926 10.5413 30.9171 10.5576 30.8467C10.5863 30.7123 10.5546 30.63 10.4981 30.5762C10.4308 30.5135 10.3178 30.5088 10.2026 30.5958C10.1577 30.6278 10.1003 30.6927 10.0588 30.7558C10.004 30.8395 9.95945 30.9239 9.91749 31.0093C9.78134 31.1889 9.67087 31.3058 9.59552 31.3757C9.67901 31.2512 9.7428 31.1189 9.79846 30.9854C9.84684 30.8702 9.88666 30.7533 9.92519 30.6355C9.93033 30.621 9.93247 30.6057 9.93847 30.5788C9.91791 30.5984 9.90635 30.6057 9.89736 30.6172C9.73724 30.8104 9.55656 30.9858 9.37716 31.1573C9.35918 31.174 9.34548 31.1927 9.32878 31.2111C9.33649 31.1189 9.40414 30.9995 9.47478 30.8958C9.50133 30.8689 9.52616 30.842 9.54971 30.813C9.62335 30.7264 9.68714 30.6219 9.72739 30.5208C9.77877 30.3881 9.73467 30.3032 9.6576 30.2515C9.61265 30.2208 9.56255 30.2038 9.50561 30.2038C9.45894 30.2038 9.40585 30.2157 9.34762 30.2405ZM7.51857 30.5681C7.44065 30.5634 7.28438 30.5575 7.28266 30.5634C7.72023 30.784 7.8491 31.0874 7.92018 31.4585C8.01437 31.4129 8.10727 31.133 8.091 30.9858C8.06917 30.7814 7.95528 30.6325 7.76818 30.4909C7.76304 30.5191 7.75962 30.5353 7.75448 30.5566C7.65258 30.5101 7.58879 30.4116 7.45906 30.3907C7.48004 30.4546 7.49888 30.5101 7.51857 30.5681ZM11.4618 31.1027C11.4545 31.0989 11.4434 31.0946 11.4314 31.0882C11.3471 31.0408 11.0307 30.97 10.8684 31.1437C10.7567 31.267 10.6231 31.5767 10.8277 31.7102C10.8778 31.7418 10.9142 31.7725 10.9939 31.7337C11.0602 31.7 11.1043 31.6386 11.1351 31.5682C11.1411 31.5554 11.142 31.5413 11.1467 31.5212C11.1339 31.531 11.127 31.5349 11.1206 31.5421C11.0546 31.6138 11.0161 31.6326 10.984 31.6108C10.9519 31.5912 10.9266 31.473 10.963 31.4078C11.0602 31.2341 11.2435 31.1757 11.3342 31.2311C11.4062 31.2755 11.4224 31.3711 11.3646 31.5131C11.297 31.6791 11.1835 31.8122 11.0469 31.8685C10.9224 31.9197 10.7999 31.9393 10.6774 31.9556C10.6012 31.9645 10.5259 31.9466 10.4467 31.9295C10.3469 31.9069 10.2429 31.8847 10.1307 31.9159C9.828 32.0021 9.47478 32.2794 9.27398 32.5576C9.31422 32.5597 9.35404 32.5605 9.39429 32.5605C9.45252 32.4923 9.52188 32.4253 9.60323 32.3639C9.83614 32.1847 10.0669 32.0925 10.2844 32.1023C10.4561 32.1113 10.6085 32.1437 10.7678 32.1505C10.8654 32.1552 10.9609 32.1612 11.0624 32.1433C11.2049 32.1177 11.3432 32.0093 11.4635 31.8122C11.425 31.8041 11.3895 31.7968 11.3496 31.787C11.5166 31.6377 11.6498 31.4632 11.6934 31.232C11.6245 31.2798 11.5607 31.3194 11.4939 31.3582C11.538 31.2657 11.5813 31.1778 11.6082 31.092C11.6369 31.0012 11.6335 30.9278 11.601 30.8779C11.5552 30.9538 11.5128 31.0238 11.4618 31.1027ZM8.14067 31.7486C8.04519 31.8263 8.04776 31.9556 8.12654 32.0575C8.15309 32.0921 8.18348 32.1219 8.20404 32.1458C8.28667 32.078 8.35774 32.0085 8.43781 31.9475C8.61506 31.8114 8.66644 31.6535 8.64075 31.4901C8.63475 31.45 8.62319 31.4112 8.61249 31.3604C8.45236 31.5029 8.29052 31.6253 8.14067 31.7486ZM7.3563 31.7994C7.2711 31.796 7.19018 31.7917 7.1084 31.7819C7.10755 31.7887 7.19917 31.8766 7.25312 31.9172C7.21416 31.95 7.17777 31.9799 7.14095 32.0093C7.53142 31.9939 7.8217 32.174 8.11241 32.3545C8.07516 32.1211 7.74335 31.8067 7.34089 31.7495C7.3456 31.7657 7.35031 31.7811 7.3563 31.7994ZM8.91476 32.2986C8.85268 32.3698 8.7662 32.4364 8.69256 32.5008C8.83128 32.5247 8.96785 32.5401 9.10443 32.5486C9.12027 32.5413 9.13612 32.5328 9.15067 32.5217C9.22646 32.4675 9.28854 32.3946 9.35147 32.3259C9.39729 32.2751 9.43197 32.2171 9.47606 32.1629C9.51717 32.1113 9.56384 32.0618 9.60922 32.008C9.32793 32.0161 9.09244 32.0942 8.91476 32.2986ZM10.3743 32.2883C10.1328 32.3088 9.86696 32.4189 9.61136 32.5567C10.0147 32.5418 10.4 32.4773 10.7404 32.3877C10.6633 32.3208 10.5661 32.2858 10.439 32.2858C10.4184 32.2858 10.3966 32.2871 10.3743 32.2883Z" fill="url(#paint35_linear_549_2)"/>
<mask id="mask61_549_2" style="mask-type:luminance" maskUnits="userSpaceOnUse" x="0" y="-1" width="73" height="34">
<path d="M0.171875 32.8096H72.3812V-0.0413851H0.171875V32.8096Z" fill="white"/>
</mask>
<g mask="url(#mask61_549_2)">
<mask id="mask62_549_2" style="mask-type:luminance" maskUnits="userSpaceOnUse" x="7" y="19" width="7" height="9">
<path d="M7.9707 19.9254H13.456V27.6279H7.9707V19.9254Z" fill="white"/>
</mask>
<g mask="url(#mask62_549_2)">
<path d="M7.99608 19.9254C7.98324 19.9271 7.97254 19.9339 7.97168 19.9467V19.951C7.97596 20.0214 7.99523 20.1028 8.06459 20.2082C8.14123 20.3247 8.22514 20.4113 8.3142 20.4843C8.25297 20.5005 8.20288 20.5892 8.22129 20.6395C8.28937 20.6895 8.35616 20.7219 8.42081 20.7757C8.55653 20.8866 8.62632 20.8273 8.63702 20.7774C8.64002 20.7595 8.61904 20.727 8.58779 20.6895C8.61647 20.7155 8.64901 20.733 8.68284 20.7326C8.74235 20.7193 8.78259 20.692 8.73764 20.599C8.71366 20.5517 8.67042 20.4975 8.64687 20.448C8.62204 20.3959 8.61048 20.3477 8.5925 20.2974C8.5287 20.2923 8.45849 20.3584 8.44864 20.4292C8.39469 20.3302 8.3339 20.2296 8.25212 20.1267C8.17248 20.0248 8.09541 19.954 8.02477 19.9288C8.01963 19.9271 8.01407 19.9258 8.00893 19.9254H7.99608ZM9.13839 20.3652C9.15466 20.4796 9.27454 20.6698 9.39442 20.817C9.34261 20.6954 9.36359 20.6263 9.41069 20.5662C9.42867 20.544 9.42396 20.4599 9.35845 20.3802C9.33319 20.349 9.27496 20.2906 9.23686 20.2799C9.22444 20.2761 9.21245 20.2744 9.20261 20.2744C9.1508 20.2744 9.13196 20.3196 9.13839 20.3652ZM9.94673 20.4727C9.9189 20.4949 9.86924 20.5355 9.84141 20.6886C9.81829 20.6583 9.75363 20.6012 9.72281 20.5743C9.71125 20.5939 9.69541 20.6084 9.68898 20.6314C9.66758 20.7014 9.67914 20.7855 9.72837 20.8768C9.81229 21.0351 9.90434 21.1908 9.99725 21.3456C10.1685 21.6315 10.3329 21.9058 10.2396 22.1567C10.2593 22.1554 10.2657 22.1558 10.2691 22.1554C10.2755 22.1533 10.279 22.1452 10.2841 22.1422C10.4121 22.053 10.5072 21.9024 10.4138 21.7215C10.3179 21.5346 10.0606 21.3 9.97114 21.1084C9.9189 20.9988 9.91633 20.9066 9.95272 20.8277C9.98612 20.7569 10.0837 20.7211 10.1916 20.733C10.2173 20.7364 10.2803 20.7676 10.3089 20.7855C10.4138 20.8563 10.4721 20.96 10.4515 21.0479C10.44 21.0986 10.3959 21.1204 10.3355 21.0995C10.291 21.0841 10.2332 21.0457 10.207 21.0094C10.1839 20.9779 10.1955 20.9335 10.1921 20.8947C10.1176 20.8874 10.0979 20.8985 10.0957 20.9574C10.091 21.056 10.2109 21.198 10.3346 21.2275C10.4425 21.2569 10.5487 21.2091 10.5735 21.1298C10.6095 21.0176 10.571 20.9036 10.4725 20.8192C10.4237 20.7791 10.374 20.7262 10.3578 20.6835C10.3411 20.6404 10.3565 20.6093 10.3697 20.5653C10.3715 20.5615 10.3663 20.5555 10.3625 20.5457C10.234 20.4919 10.201 20.5811 10.13 20.6221C10.1069 20.5832 10.0884 20.5534 10.07 20.5222C10.0396 20.4685 10.0217 20.445 9.99896 20.445C9.98483 20.445 9.96856 20.4548 9.94673 20.4727ZM8.94315 20.6336C8.92174 20.6536 8.90804 20.6954 8.93031 20.7356C8.97355 20.817 9.06132 20.8981 9.15808 20.9446C9.34261 21.0333 9.51002 21.1669 9.63418 21.3375C9.65559 21.3678 9.67614 21.3986 9.69626 21.4297C9.58965 21.3243 9.46549 21.2279 9.35289 21.1298C9.23172 21.0261 9.11484 20.9779 9.01593 20.9826C8.98682 20.9843 8.96627 21.0107 8.96755 21.0398C8.97226 21.1413 9.0412 21.2454 9.14438 21.37C9.23172 21.4753 9.31906 21.5965 9.41411 21.7109C9.39399 21.6938 9.37301 21.678 9.35289 21.6609C9.20689 21.5436 9.08016 21.402 8.97826 21.2386C8.92731 21.1567 8.70296 20.8823 8.60577 21.0197C8.57066 21.0692 8.62461 21.1682 8.72865 21.2479C8.82113 21.3179 8.91575 21.3768 9.00909 21.4442C9.0108 21.5568 9.05404 21.6294 9.18891 21.7271C9.26683 21.7821 9.34475 21.8243 9.42225 21.8781C9.44537 21.8943 9.47876 21.9246 9.4869 21.9464C9.52629 22.0564 9.59907 22.1144 9.67828 22.1494C9.76862 22.1891 9.84997 22.1908 9.9082 22.1891C9.96129 22.187 10.0161 22.1584 10.0529 22.1089C10.1073 22.0368 10.1407 21.8474 10.0593 21.6968C10.0324 21.6473 9.98184 21.5901 9.93517 21.5509C9.89749 21.5176 9.8748 21.4963 9.85297 21.4498C9.80929 21.3546 9.75363 21.2599 9.68898 21.1686C9.5965 21.0406 9.51558 20.9992 9.42653 21.009C9.34861 20.9126 9.27796 20.823 9.19576 20.7407C9.12126 20.6668 9.03349 20.6216 8.97997 20.6216C8.96456 20.6216 8.95171 20.6255 8.94315 20.6336ZM8.31377 21.4472C8.3142 21.5769 8.50858 21.5952 8.55653 21.5769C8.61562 21.5543 8.65329 21.509 8.71152 21.4881C8.75134 21.4753 8.81214 21.4907 8.88449 21.495C8.75776 21.4156 8.56595 21.3217 8.4405 21.3217C8.36515 21.3217 8.31334 21.3555 8.31377 21.4472ZM8.59164 21.6823C8.56895 21.6874 8.55311 21.7019 8.53298 21.7117C8.56081 21.7445 8.6032 21.8094 8.63959 21.8371C8.58693 21.8486 8.54026 21.8529 8.49873 21.8691C8.46534 21.8811 8.44136 21.9045 8.4161 21.928C8.36344 21.9779 8.37157 21.998 8.45763 22.0543C8.48803 22.0739 8.51586 22.094 8.55439 22.12C8.41952 22.2156 8.47818 22.3559 8.48246 22.3551C8.52613 22.3436 8.55782 22.3303 8.60106 22.35C8.64216 22.3696 8.69226 22.4225 8.7295 22.4728C8.80828 22.5769 8.9196 22.6222 9.03434 22.594C9.11612 22.5744 9.16921 22.4724 9.14695 22.3623C9.12468 22.2382 8.9911 22.1089 8.89263 22.1076C8.83311 22.1064 8.82027 22.1251 8.82241 22.1989C8.8618 22.2058 8.9059 22.1964 8.9363 22.2211C8.97141 22.2497 9.00651 22.3094 9.01893 22.3551C9.03563 22.417 9.01165 22.4583 8.95985 22.4664C8.87037 22.4814 8.76975 22.417 8.70638 22.3086C8.68926 22.2783 8.66314 22.2147 8.66143 22.1883C8.65586 22.0799 8.69739 21.9852 8.77103 21.957C8.85281 21.9259 8.94443 21.9349 9.05062 21.9929C9.23686 22.0957 9.45521 22.3658 9.63675 22.4728C9.81186 22.5769 9.96899 22.4929 10.0662 22.3713C10.0696 22.3666 10.0777 22.3632 10.0803 22.3572C10.0807 22.3542 10.0803 22.347 10.0833 22.3274C9.82642 22.4046 9.56225 22.2233 9.28652 22.0351C9.13838 21.9327 8.98768 21.8307 8.83526 21.7369C8.76889 21.6963 8.70553 21.6754 8.64773 21.6754C8.62846 21.6754 8.60962 21.678 8.59164 21.6823ZM10.7478 21.8149C10.6104 21.8858 10.5496 22.0778 10.6763 22.3239C10.7075 22.3828 10.7452 22.4451 10.7885 22.4993C10.9563 22.7109 11.1447 22.8824 11.3309 23.0578C11.444 23.1661 11.5501 23.2835 11.6576 23.4021C11.9342 23.7088 11.8832 24.0727 11.8909 24.0898C12.0143 23.8897 12.1222 23.6836 12.0207 23.3645C11.956 23.1653 11.8203 23.0296 11.6803 22.9084C11.5741 22.8154 11.4628 22.7365 11.3523 22.6508C11.2021 22.5343 11.1062 22.364 11.1002 22.2186C11.0946 22.0859 11.1772 22.0355 11.3361 22.0795C11.3566 22.085 11.3686 22.088 11.4046 22.0982C11.3463 21.9907 11.2419 21.9178 11.1507 21.8623C11.0526 21.803 10.9687 21.7796 10.8955 21.7796C10.8403 21.7796 10.7915 21.7932 10.7478 21.8149ZM10.5196 22.6533C10.7118 22.9639 10.8698 23.2941 11.0231 23.6213C11.1006 23.7835 11.2115 23.9328 11.313 24.0753C11.3506 24.1274 11.4294 24.1419 11.4889 24.1534C11.5305 24.1615 11.5596 24.1734 11.5861 24.2233C11.9291 24.8497 12.1984 25.5041 12.4141 26.1351C12.4206 26.1565 12.4257 26.1889 12.4176 26.2072C12.323 26.3962 12.3803 26.5315 12.4788 26.6543C12.5567 26.7525 12.7002 26.9513 12.7562 26.9466C12.7678 26.8284 12.7811 26.7119 12.7789 26.5959C12.7785 26.4914 12.7742 26.3813 12.7438 26.2836C12.7258 26.2243 12.6603 26.1897 12.6162 26.1428C12.5846 26.1095 12.5383 26.0839 12.5238 26.0425C12.2956 25.426 12.0224 24.7835 11.6777 24.1734C11.6435 24.1103 11.6353 24.0668 11.6568 24.0053C11.6927 23.8982 11.6589 23.7792 11.5955 23.6674C11.4324 23.3837 11.2128 23.1644 10.9841 22.9631C10.8467 22.8423 10.7037 22.7331 10.5586 22.6239C10.5406 22.6098 10.5209 22.6004 10.4866 22.5791C10.5033 22.6158 10.5089 22.6362 10.5196 22.6533ZM9.89835 22.8056C9.77975 22.8931 9.72195 23.0236 9.73651 23.2233C9.74764 23.3624 9.84355 23.5595 9.93603 23.6218C9.94116 23.5574 9.93988 23.4946 9.9493 23.4409C9.9737 23.3248 10.0555 23.2672 10.1668 23.2834C10.2627 23.2988 10.3967 23.417 10.4417 23.5326C10.517 23.7195 10.5757 23.9106 10.6373 24.1005C10.7084 24.3198 10.8356 24.455 11.0171 24.4998C11.1648 24.5365 11.3078 24.5083 11.4521 24.4439C11.3909 24.4068 11.3433 24.3765 11.2937 24.3484C11.137 24.2575 11.0334 24.0988 10.9537 23.911C10.8544 23.6772 10.7615 23.4379 10.6275 23.2212C10.5414 23.0787 10.4271 22.9421 10.3051 22.8393C10.2229 22.7706 10.1462 22.7425 10.076 22.7425C10.0105 22.7425 9.95058 22.7672 9.89835 22.8056ZM8.69226 24.3087C8.59507 24.2925 8.49616 24.2771 8.38913 24.26C8.35958 24.3816 8.41439 24.49 8.4846 24.583C8.55439 24.6735 8.64559 24.7451 8.72351 24.8258C8.66186 24.8535 8.59849 24.8795 8.53641 24.906C8.64088 25.1308 8.81214 25.2409 9.08615 25.2093C9.30965 25.1828 9.52757 25.1291 9.74379 25.0805C9.98997 25.0263 10.2276 24.9661 10.4678 25.0664C10.6938 25.1594 10.83 25.365 10.9002 25.6227C10.9554 25.828 10.925 26.0127 10.83 26.2166C10.827 26.2226 10.8728 26.2665 10.8908 26.2776C10.9186 26.1949 11.0043 26.0669 11.0218 25.9811C11.1477 25.3369 10.714 24.8863 10.1822 24.8497C9.97285 24.8326 9.76048 24.8578 9.54641 24.8633C9.37087 24.8688 9.19619 24.8659 9.04505 24.7575C8.86523 24.6261 8.76204 24.3466 8.9166 24.1244C9.00523 23.9977 9.17135 23.9439 9.30922 24.0087C9.39998 24.0518 9.48304 24.1828 9.47962 24.2886C9.47791 24.3577 9.45821 24.42 9.39528 24.4439C9.33533 24.4657 9.28567 24.4426 9.24285 24.3893C9.236 24.3816 9.22658 24.3761 9.21845 24.3692C9.18248 24.4605 9.25313 24.6278 9.35546 24.6602C9.53271 24.7161 9.71125 24.4887 9.67828 24.2656C9.64959 24.0612 9.55412 23.8897 9.37387 23.8095C9.17606 23.7221 9.00823 23.7532 8.8678 23.8999C8.8511 23.9162 8.83568 23.9281 8.82155 23.9401C8.74748 23.8628 8.68326 23.7976 8.61262 23.7276C8.49616 23.9349 8.56938 24.1103 8.69226 24.3087ZM9.69712 24.6449C9.89878 24.6385 10.1086 24.3808 10.0135 24.1517C9.94502 23.9806 9.73822 23.8398 9.57766 23.7417C9.82642 24.0254 9.92704 24.3334 9.69712 24.6449ZM12.2729 25.002C12.3439 25.121 12.391 25.2588 12.4445 25.3885C12.6381 25.2712 12.7751 25.0382 12.6954 24.7861C12.6548 24.6572 12.5846 24.5382 12.519 24.4209C12.469 24.333 12.406 24.257 12.3521 24.1721C12.299 24.0907 12.2527 24.004 12.1992 23.9166C12.0763 24.3044 12.0733 24.6619 12.2729 25.002ZM11.5275 25.4875C11.5904 25.6552 11.7711 25.714 11.9505 25.6552C12.0104 25.6347 12.0673 25.6078 12.1097 25.5912C12.0545 25.4457 11.9916 25.3168 11.9449 25.1782C11.8409 24.871 11.6461 24.7255 11.4063 24.6824C11.3476 24.6726 11.2868 24.6692 11.2123 24.6598C11.3352 24.9461 11.4273 25.2238 11.5275 25.4875ZM9.39784 25.461C9.43466 25.4824 9.45521 25.4935 9.48262 25.5105C9.37087 25.6283 9.20304 25.6675 9.11141 25.8343C9.21117 25.836 9.29766 25.8369 9.38628 25.8377C9.3439 25.9414 9.26169 26.1526 9.26854 26.1582C9.78232 25.665 10.2644 25.6334 10.8133 25.7149C10.7949 25.5643 10.4498 25.3032 10.2379 25.2554C10.1702 25.24 10.1043 25.2323 10.0396 25.2323C9.82214 25.2323 9.61748 25.3164 9.39784 25.461ZM12.6483 25.6193C12.7858 25.5656 12.9224 25.5156 13.0572 25.4875C13.0482 25.4644 13.0401 25.441 13.0311 25.4184C13.008 25.3608 12.9827 25.3006 12.9575 25.2392C12.823 25.3475 12.7096 25.4862 12.6483 25.6193ZM12.6753 25.9585C12.6676 25.9611 12.662 25.9722 12.6483 25.9926C12.8547 26.0293 12.9314 26.2102 12.9699 26.4197C13.0893 26.3907 13.1433 26.2883 13.1955 26.1957C13.2405 26.2367 13.2824 26.2853 13.3304 26.3203C13.2889 26.1697 13.2422 26.0152 13.1895 25.8574C13.1621 25.8544 13.1343 25.8523 13.1073 25.8523C12.9618 25.8523 12.8183 25.8966 12.6753 25.9585ZM10.881 26.6799C10.9058 26.6808 10.9306 26.6812 10.9584 26.6817C10.9131 26.7956 10.8681 26.9052 10.8163 27.0115C10.8244 27.0166 10.9914 26.9334 11.0732 26.8788C11.1002 26.9487 11.1237 27.0119 11.1473 27.0759C11.3121 26.5353 11.6987 26.2264 12.087 25.9154C12.0584 25.9103 12.028 25.9081 11.9963 25.9081C11.6478 25.9081 11.1293 26.2025 10.881 26.6799ZM12.1427 26.3139C12.0083 26.4291 11.8832 26.5562 11.8156 26.7303C11.7492 26.8975 11.7702 27.0315 11.8777 27.1454C12.0125 27.023 12.1132 26.8997 12.0738 26.7444C12.168 26.7392 12.2579 26.7328 12.3718 26.7247C12.2874 26.54 12.2352 26.3766 12.3504 26.1795C12.3439 26.1744 12.3384 26.1688 12.3315 26.1646C12.2711 26.2153 12.2048 26.2618 12.1427 26.3139ZM12.9378 26.552C13.0071 26.6697 13.0564 26.7734 13.1262 26.8591C13.1745 26.9227 13.2542 26.9645 13.3526 26.9227C13.3869 26.9091 13.4331 26.8732 13.4567 26.8378C13.4473 26.7921 13.437 26.7465 13.4263 26.6996C13.3569 26.7077 13.3034 26.6671 13.2593 26.6352C13.1857 26.5827 13.1069 26.549 12.9977 26.549C12.9789 26.549 12.9588 26.5498 12.9378 26.552ZM12.2262 27.1096C12.1984 27.2009 12.1598 27.276 12.0374 27.302C12.0862 27.3728 12.1607 27.386 12.2467 27.3762C12.3277 27.3664 12.3842 27.3092 12.4193 27.2465C12.4728 27.1514 12.4788 27.037 12.466 26.9385C12.4591 26.8843 12.4484 26.8203 12.4308 26.7849C12.3195 26.8864 12.263 26.9952 12.2262 27.1096ZM13.0696 27.2649C13.1651 27.3191 13.3047 27.2563 13.3813 27.0998C13.2542 27.1347 13.2084 27.055 13.1433 26.9893C13.0859 26.9321 13.0123 26.8945 12.9386 26.8429C12.9005 27.0021 12.966 27.2077 13.0696 27.2649ZM12.5353 27.2393C12.5383 27.3255 12.5396 27.4031 12.451 27.4829C12.5353 27.5076 12.609 27.4867 12.6817 27.4291C12.7472 27.3788 12.7669 27.3165 12.7635 27.2461C12.7571 27.1237 12.6672 26.9773 12.5516 26.9231C12.549 27.0387 12.5306 27.1437 12.5353 27.2393ZM12.9275 27.5998C12.9386 27.6168 12.9528 27.6262 12.9703 27.6279H12.9832C12.9981 27.6266 13.0157 27.6211 13.0362 27.6109C13.0949 27.5814 13.1146 27.5482 13.1056 27.5029C13.0816 27.3754 12.9879 27.296 12.8847 27.2196C12.865 27.3647 12.8594 27.4953 12.9275 27.5998Z" fill="url(#paint36_linear_549_2)"/>
</g>
</g>
<path d="M4.2799 18.8886L4.45459 18.7892L3.97892 17.9628L3.80423 18.0622L3.98705 18.3809L3.12305 18.8754L3.2318 19.0648L4.09623 18.5699L4.2799 18.8886ZM5.05956 19.8387L4.20412 19.974L4.74958 19.3007L4.58004 19.0076L3.54178 19.6019L3.6501 19.7909L4.44474 19.3366L4.44774 19.3417L3.82093 20.087L3.90998 20.2415L4.8716 20.0789L4.8746 20.0828L4.08081 20.5376L4.18956 20.7266L5.22825 20.1327L5.05956 19.8387Z" fill="#BCBAB7"/>
</g>
<defs>
<linearGradient id="paint0_linear_549_2" x1="5.61609" y1="18.1588" x2="8.75281" y2="10.5002" gradientUnits="userSpaceOnUse">
<stop stop-color="white"/>
<stop offset="0.573743" stop-color="white" stop-opacity="0"/>
<stop offset="1" stop-color="white" stop-opacity="0"/>
</linearGradient>
<linearGradient id="paint1_linear_549_2" x1="5.61667" y1="18.1592" x2="8.7534" y2="10.5006" gradientUnits="userSpaceOnUse">
<stop stop-color="#858380"/>
<stop offset="1" stop-color="#A19F9C"/>
</linearGradient>
<linearGradient id="paint2_linear_549_2" x1="7.29934" y1="-0.0638307" x2="11.547" y2="11.1981" gradientUnits="userSpaceOnUse">
<stop stop-color="white"/>
<stop offset="0.573743" stop-color="white" stop-opacity="0"/>
<stop offset="1" stop-color="white" stop-opacity="0"/>
</linearGradient>
<linearGradient id="paint3_linear_549_2" x1="7.29936" y1="-0.0640651" x2="11.5471" y2="11.1979" gradientUnits="userSpaceOnUse">
<stop stop-color="#9D9B98"/>
<stop offset="1" stop-color="#797775"/>
</linearGradient>
<linearGradient id="paint4_linear_549_2" x1="11.666" y1="8.76089" x2="-0.749824" y2="30.2654" gradientUnits="userSpaceOnUse">
<stop stop-color="white" stop-opacity="0.8"/>
<stop offset="0.159843" stop-color="white" stop-opacity="0.8"/>
<stop offset="0.842522" stop-color="white"/>
<stop offset="1" stop-color="white"/>
</linearGradient>
<linearGradient id="paint5_linear_549_2" x1="11.6655" y1="8.7613" x2="-0.750335" y2="30.2658" gradientUnits="userSpaceOnUse">
<stop stop-color="#797775"/>
<stop offset="0.842522" stop-color="#F2EFEA"/>
<stop offset="1" stop-color="#F2EFEA"/>
</linearGradient>
<linearGradient id="paint6_linear_549_2" x1="5.97382" y1="29.3758" x2="5.97382" y2="4.53923" gradientUnits="userSpaceOnUse">
<stop stop-color="white"/>
<stop offset="0.0186554" stop-color="white"/>
<stop offset="1" stop-color="white" stop-opacity="0.8"/>
</linearGradient>
<linearGradient id="paint7_linear_549_2" x1="5.97382" y1="29.3748" x2="5.97382" y2="4.53821" gradientUnits="userSpaceOnUse">
<stop stop-color="#9D9B98"/>
<stop offset="1" stop-color="#F2EFEA"/>
</linearGradient>
<linearGradient id="paint8_linear_549_2" x1="14.5111" y1="19.5561" x2="8.05121" y2="1.53175" gradientUnits="userSpaceOnUse">
<stop stop-color="white"/>
<stop offset="0.0186554" stop-color="white"/>
<stop offset="1" stop-color="white" stop-opacity="0.8"/>
</linearGradient>
<linearGradient id="paint9_linear_549_2" x1="14.5115" y1="19.5549" x2="8.05157" y2="1.5306" gradientUnits="userSpaceOnUse">
<stop stop-color="#9D9B98"/>
<stop offset="1" stop-color="#F2EFEA"/>
</linearGradient>
<linearGradient id="paint10_linear_549_2" x1="14.0965" y1="30.272" x2="4.27967" y2="2.88152" gradientUnits="userSpaceOnUse">
<stop stop-color="white"/>
<stop offset="0.0186554" stop-color="white"/>
<stop offset="1" stop-color="white" stop-opacity="0"/>
</linearGradient>
<linearGradient id="paint11_linear_549_2" x1="14.0965" y1="30.2712" x2="4.27967" y2="2.88066" gradientUnits="userSpaceOnUse">
<stop stop-color="#44433E"/>
<stop offset="1" stop-color="#F2EFEA"/>
</linearGradient>
<linearGradient id="paint12_linear_549_2" x1="8.02948" y1="3.95719" x2="8.02948" y2="16.1745" gradientUnits="userSpaceOnUse">
<stop stop-color="white" stop-opacity="0.2"/>
<stop offset="1" stop-color="white" stop-opacity="0.8"/>
</linearGradient>
<linearGradient id="paint13_linear_549_2" x1="8.02991" y1="3.95717" x2="8.02991" y2="16.1745" gradientUnits="userSpaceOnUse">
<stop stop-color="#F2EFEA"/>
<stop offset="1" stop-color="#F2EFEA"/>
</linearGradient>
<linearGradient id="paint14_linear_549_2" x1="4.19229" y1="3.38821" x2="8.19387" y2="0.786838" gradientUnits="userSpaceOnUse">
<stop stop-color="#FAF6F2"/>
<stop offset="1" stop-color="#FFFBF7"/>
</linearGradient>
<linearGradient id="paint15_linear_549_2" x1="3.41202" y1="1.26044" x2="7.97416" y2="1.26044" gradientUnits="userSpaceOnUse">
<stop stop-color="white" stop-opacity="0.8"/>
<stop offset="0.0906694" stop-color="white" stop-opacity="0.8"/>
<stop offset="1" stop-color="white" stop-opacity="0"/>
</linearGradient>
<linearGradient id="paint16_linear_549_2" x1="3.41202" y1="1.26099" x2="7.97416" y2="1.26099" gradientUnits="userSpaceOnUse">
<stop stop-color="#B0AEAB"/>
<stop offset="1" stop-color="#FAF6F2"/>
</linearGradient>
<linearGradient id="paint17_linear_549_2" x1="15.1236" y1="3.87205" x2="8.8896" y2="0.47786" gradientUnits="userSpaceOnUse">
<stop stop-color="white" stop-opacity="0.8"/>
<stop offset="0.0477852" stop-color="white" stop-opacity="0.8"/>
<stop offset="0.527027" stop-color="white" stop-opacity="0.602228"/>
<stop offset="0.537629" stop-color="white" stop-opacity="0.602228"/>
<stop offset="1" stop-color="white" stop-opacity="0.4"/>
</linearGradient>
<linearGradient id="paint18_linear_549_2" x1="15.123" y1="3.87221" x2="8.88902" y2="0.47802" gradientUnits="userSpaceOnUse">
<stop stop-color="#FFFBF7"/>
<stop offset="0.527027" stop-color="#FFFBF7"/>
<stop offset="1" stop-color="#B4B2AF"/>
</linearGradient>
<linearGradient id="paint19_linear_549_2" x1="4.71569" y1="0.688246" x2="12.3281" y2="0.688246" gradientUnits="userSpaceOnUse">
<stop stop-color="white"/>
<stop offset="0.0906694" stop-color="white"/>
<stop offset="1" stop-color="white" stop-opacity="0"/>
</linearGradient>
<linearGradient id="paint20_linear_549_2" x1="4.7157" y1="0.688237" x2="12.3281" y2="0.688237" gradientUnits="userSpaceOnUse">
<stop stop-color="#CCC9C6"/>
<stop offset="1" stop-color="#FAF6F2"/>
</linearGradient>
<linearGradient id="paint21_linear_549_2" x1="3.09211" y1="1.82403" x2="2.28286" y2="15.9005" gradientUnits="userSpaceOnUse">
<stop stop-color="white" stop-opacity="0.8"/>
<stop offset="0.0906694" stop-color="white" stop-opacity="0.8"/>
<stop offset="1" stop-color="white" stop-opacity="0"/>
</linearGradient>
<linearGradient id="paint22_linear_549_2" x1="3.09309" y1="1.82464" x2="2.28384" y2="15.9011" gradientUnits="userSpaceOnUse">
<stop stop-color="#FFFBF7"/>
<stop offset="1" stop-color="#FFFBF7"/>
</linearGradient>
<linearGradient id="paint23_linear_549_2" x1="5.23244" y1="22.4086" x2="13.5669" y2="22.4086" gradientUnits="userSpaceOnUse">
<stop stop-color="white"/>
<stop offset="0.0906694" stop-color="white"/>
<stop offset="1" stop-color="white" stop-opacity="0"/>
</linearGradient>
<linearGradient id="paint24_linear_549_2" x1="5.23285" y1="22.4073" x2="13.5673" y2="22.4073" gradientUnits="userSpaceOnUse">
<stop stop-color="#DAD7D3"/>
<stop offset="1" stop-color="#FAF6F2"/>
</linearGradient>
<linearGradient id="paint25_linear_549_2" x1="5.02888" y1="10.5276" x2="4.75161" y2="5.26862" gradientUnits="userSpaceOnUse">
<stop stop-color="white"/>
<stop offset="0.0906694" stop-color="white"/>
<stop offset="1" stop-color="white" stop-opacity="0"/>
</linearGradient>
<linearGradient id="paint26_linear_549_2" x1="5.02934" y1="10.5268" x2="4.75207" y2="5.26788" gradientUnits="userSpaceOnUse">
<stop stop-color="#BBB8B5"/>
<stop offset="1" stop-color="#FAF6F2"/>
</linearGradient>
<linearGradient id="paint27_linear_549_2" x1="8.16537" y1="2.9009" x2="8.16537" y2="31.174" gradientUnits="userSpaceOnUse">
<stop stop-color="white" stop-opacity="0"/>
<stop offset="0.0225393" stop-color="white" stop-opacity="0"/>
<stop offset="0.512418" stop-color="white"/>
<stop offset="0.982748" stop-color="white" stop-opacity="0"/>
<stop offset="1" stop-color="white" stop-opacity="0"/>
</linearGradient>
<linearGradient id="paint28_linear_549_2" x1="8.16546" y1="2.90153" x2="8.16546" y2="31.1746" gradientUnits="userSpaceOnUse">
<stop stop-color="#DAD7D3"/>
<stop offset="0.512418" stop-color="#FFFBF7"/>
<stop offset="1" stop-color="#EEEBE7"/>
</linearGradient>
<linearGradient id="paint29_linear_549_2" x1="8.16536" y1="1.24445" x2="8.16536" y2="29.5175" gradientUnits="userSpaceOnUse">
<stop stop-color="white" stop-opacity="0"/>
<stop offset="0.0225393" stop-color="white" stop-opacity="0"/>
<stop offset="0.512418" stop-color="white"/>
<stop offset="0.982748" stop-color="white" stop-opacity="0"/>
<stop offset="1" stop-color="white" stop-opacity="0"/>
</linearGradient>
<linearGradient id="paint30_linear_549_2" x1="8.16546" y1="1.24441" x2="8.16546" y2="29.5174" gradientUnits="userSpaceOnUse">
<stop stop-color="#DAD7D3"/>
<stop offset="0.512418" stop-color="#FFFBF7"/>
<stop offset="1" stop-color="#EEEBE7"/>
</linearGradient>
<linearGradient id="paint31_linear_549_2" x1="9.58763" y1="29.7606" x2="5.63663" y2="13.4548" gradientUnits="userSpaceOnUse">
<stop stop-color="#FAF6F2"/>
<stop offset="0.512418" stop-color="#FFFBF7"/>
<stop offset="0.677314" stop-color="#FFFBF7"/>
<stop offset="0.90099" stop-color="#EBE7E3"/>
<stop offset="1" stop-color="#CCC9C6"/>
</linearGradient>
<linearGradient id="paint32_linear_549_2" x1="4.19799" y1="4.02306" x2="1.52853" y2="8.64658" gradientUnits="userSpaceOnUse">
<stop stop-color="#791426"/>
<stop offset="0.534653" stop-color="#AF1C3B"/>
<stop offset="1" stop-color="#791426"/>
</linearGradient>
<linearGradient id="paint33_linear_549_2" x1="3.6883" y1="3.72939" x2="1.01858" y2="8.35327" gradientUnits="userSpaceOnUse">
<stop stop-color="#791426"/>
<stop offset="0.534653" stop-color="#AF1C3B"/>
<stop offset="1" stop-color="#791426"/>
</linearGradient>
<linearGradient id="paint34_linear_549_2" x1="5.00802" y1="4.49112" x2="2.33862" y2="9.11453" gradientUnits="userSpaceOnUse">
<stop stop-color="#791426"/>
<stop offset="0.534653" stop-color="#AF1C3B"/>
<stop offset="1" stop-color="#791426"/>
</linearGradient>
<linearGradient id="paint35_linear_549_2" x1="5.07394" y1="41.3681" x2="15.1395" y2="17.378" gradientUnits="userSpaceOnUse">
<stop stop-color="#791426"/>
<stop offset="0.534653" stop-color="#AF1C3B"/>
<stop offset="1" stop-color="#791426"/>
</linearGradient>
<linearGradient id="paint36_linear_549_2" x1="4.93187" y1="12.104" x2="16.667" y2="38.4613" gradientUnits="userSpaceOnUse">
<stop stop-color="#791426"/>
<stop offset="0.534653" stop-color="#AF1C3B"/>
<stop offset="1" stop-color="#791426"/>
</linearGradient>
<clipPath id="clip0_549_2">
<rect width="17" height="35" fill="white"/>
</clipPath>
</defs>
</svg>
